<svg viewBox="0 0 23.304 23" xmlns="http://www.w3.org/2000/svg" xmlns:xlink="http://www.w3.org/1999/xlink" width="23.303955" height="23.000000" fill="none">
	<rect id="free-icon-delete-32178 1" width="23.303967" height="23.000000" x="0.000000" y="0.000000" />
	<path id="Vector 1107" d="M3.77777 0.179691C3.8199 0.1977 3.86202 0.215709 3.90543 0.234264C4.53074 0.535848 5.02304 1.13278 5.50918 1.61389C5.57607 1.67992 5.64296 1.74593 5.70987 1.81194C5.88983 1.98954 6.06966 2.16728 6.24945 2.34505C6.43799 2.53141 6.62665 2.71763 6.8153 2.90387C7.17178 3.25584 7.52814 3.60793 7.88447 3.96006C8.29044 4.36124 8.69655 4.7623 9.10267 5.16334C9.9374 5.98766 10.772 6.81214 11.6064 7.63672C11.8014 7.56245 11.9312 7.41769 12.0749 7.27385C12.1178 7.23142 12.1178 7.23142 12.1616 7.18813C12.2575 7.09313 12.3532 6.99781 12.4488 6.9025C12.5175 6.83438 12.5863 6.76627 12.655 6.69819C12.8031 6.55141 12.9511 6.4045 13.099 6.25749C13.3331 6.02483 13.5675 5.79255 13.8021 5.56034C14.469 4.89992 15.1355 4.23898 15.8015 3.57764C16.1692 3.21248 16.5373 2.84765 16.9057 2.48317C17.1387 2.25266 17.3712 2.02175 17.6035 1.79053C17.7485 1.64632 17.8939 1.5025 18.0395 1.35877C18.1066 1.29235 18.1735 1.22577 18.2403 1.15902C18.8735 0.526476 19.5325 -0.00192449 20.4759 -0.0170833C21.2947 -0.015545 21.9563 0.177902 22.5627 0.745075C23.1609 1.36872 23.3335 2.06741 23.3182 2.90027C23.3057 3.19815 23.2446 3.45586 23.1219 3.72852C23.1036 3.7701 23.0854 3.81167 23.0666 3.85451C22.761 4.47167 22.1562 4.95755 21.6687 5.43735C21.6018 5.50336 21.5349 5.56939 21.4681 5.63542C21.2881 5.81303 21.108 5.99051 20.9279 6.16796C20.7391 6.35404 20.5504 6.54024 20.3617 6.72643C20.0051 7.07826 19.6483 7.42998 19.2916 7.78165C18.8851 8.18233 18.4787 8.58314 18.0724 8.98396C17.2372 9.80781 16.4018 10.6315 15.5663 11.4551C15.6415 11.6475 15.7882 11.7756 15.934 11.9174C15.9626 11.9456 15.9913 11.9739 16.0208 12.003C16.1171 12.0977 16.2136 12.1921 16.3102 12.2865C16.3792 12.3543 16.4483 12.4221 16.5172 12.49C16.666 12.6362 16.8148 12.7822 16.9638 12.9282C17.1995 13.1592 17.4348 13.3906 17.6701 13.6221C18.3393 14.2803 19.0089 14.9381 19.679 15.5954C20.049 15.9583 20.4187 16.3216 20.788 16.6852C21.0215 16.9152 21.2555 17.1447 21.4897 17.3739C21.6359 17.517 21.7816 17.6606 21.9272 17.8042C21.9945 17.8704 22.062 17.9365 22.1296 18.0024C22.7705 18.6273 23.3059 19.2777 23.3213 20.2088C23.3197 21.0169 23.1237 21.67 22.549 22.2684C21.9171 22.8588 21.2092 23.0292 20.3653 23.014C20.0635 23.0018 19.8024 22.9415 19.5261 22.8203C19.484 22.8023 19.4419 22.7843 19.3985 22.7657C18.7732 22.4642 18.2809 21.8672 17.7947 21.3861C17.7279 21.3201 17.661 21.2541 17.594 21.1881C17.4141 21.0105 17.2343 20.8327 17.0545 20.655C16.8659 20.4686 16.6773 20.2824 16.4886 20.0961C16.1321 19.7442 15.7758 19.3921 15.4195 19.04C15.0135 18.6388 14.6074 18.2377 14.2013 17.8367C13.3665 17.0123 12.5319 16.1879 11.6975 15.3633C11.5025 15.4376 11.3727 15.5823 11.2291 15.7262C11.2004 15.7544 11.1718 15.7827 11.1424 15.8119C11.0464 15.9069 10.9507 16.0022 10.8551 16.0975C10.7864 16.1656 10.7177 16.2337 10.6489 16.3018C10.5008 16.4486 10.3528 16.5955 10.2049 16.7425C9.97085 16.9752 9.73638 17.2075 9.50183 17.4397C8.83489 18.1001 8.16847 18.761 7.50246 19.4224C7.13471 19.7875 6.76664 20.1524 6.39821 20.5168C6.16525 20.7474 5.9327 20.9783 5.70045 21.2095C5.55541 21.3537 5.40999 21.4975 5.26445 21.6412C5.19735 21.7077 5.13039 21.7742 5.06361 21.841C4.43045 22.4735 3.77145 23.0019 2.82804 23.0171C2.00926 23.0156 1.34759 22.8221 0.741207 22.2549C0.143066 21.6313 -0.0295713 20.9326 -0.0142448 20.0997C-0.00179011 19.8019 0.0593023 19.5441 0.182041 19.2715C0.209412 19.2091 0.209412 19.2091 0.237335 19.1455C0.542905 18.5283 1.14773 18.0425 1.63519 17.5627C1.70209 17.4966 1.76898 17.4306 1.83586 17.3646C2.01581 17.187 2.1959 17.0095 2.37602 16.832C2.56484 16.646 2.75352 16.4598 2.94222 16.2736C3.29885 15.9217 3.65559 15.57 4.01237 15.2184C4.41885 14.8177 4.82521 14.4169 5.23156 14.016C6.06677 13.1922 6.90214 12.3685 7.73762 11.5449C7.66237 11.3525 7.5157 11.2244 7.36996 11.0826C7.3413 11.0544 7.31263 11.0261 7.2831 10.997C7.18685 10.9023 7.09027 10.8079 6.99369 10.7135C6.92467 10.6457 6.85567 10.5779 6.78669 10.51C6.63797 10.3638 6.48912 10.2178 6.34016 10.0718C6.10442 9.84082 5.86908 9.60941 5.6338 9.37792C4.96465 8.71967 4.29498 8.06195 3.6249 7.40462C3.25492 7.04168 2.88526 6.6784 2.51596 6.31478C2.2824 6.08485 2.04844 5.85534 1.81417 5.62613C1.66806 5.48298 1.52233 5.33945 1.37671 5.19581C1.3094 5.12958 1.24194 5.0635 1.17431 4.99759C0.533409 4.37269 -0.00197485 3.72228 -0.017334 2.79118C-0.0157755 1.98307 0.180228 1.33004 0.754897 0.731563C1.54637 -0.00787055 2.76735 -0.26337 3.77777 0.179691Z" fill="rgb(247,155,0)" fill-rule="nonzero" />
</svg>
