<svg viewBox="0 0 72 268" xmlns="http://www.w3.org/2000/svg" xmlns:xlink="http://www.w3.org/1999/xlink" width="72.000000" height="268.000000" fill="none">
	<rect id="ручка" width="72.000000" height="268.000000" x="0.000000" y="0.000000" />
	<g id="Group 42">
		<path id="Vector 30" d="M0 262.51L0 257.481L11 257.481L22 257.481L22 141.917C22 38.1203 22.2 26.1515 23.6 24.7435C24.7 23.6371 27.1 23.1342 31.6 23.1342L38 23.1342L38 13.177C38 -0.40106 37.5 0.00125231 55.4 0.00125231C65.1 0.00125231 70 0.403565 70.8 1.20819C71.7 2.11339 72 9.35501 72 27.7608C72 49.4856 71.8 53.4082 70.4 54.7157C69.2 56.0232 66.3 56.325 55.4 56.325C38.1 56.325 38 56.325 38 42.7469L38 33.192L35 33.192L32 33.192L32 148.756C32 252.553 31.8 264.522 30.4 265.93C29.1 267.237 26.2 267.539 14.4 267.539L0 267.539L0 262.51ZM62 28.1631L62 10.0591L55 10.0591L48 10.0591L48 28.1631L48 46.2672L55 46.2672L62 46.2672L62 28.1631Z" fill="rgb(0,0,0)" fill-rule="nonzero" transform="matrix(1,0,0,-1,0,267.758)" />
	</g>
</svg>
