<svg viewBox="0 0 22 22" xmlns="http://www.w3.org/2000/svg" xmlns:xlink="http://www.w3.org/1999/xlink" width="22.000000" height="22.000000" fill="none">
	<rect id="free-icon-meat-grinder-294678_1 1" width="22.000000" height="22.000000" x="0.000000" y="0.000000" />
	<g id="Group 39">
		<path id="Vector 25" d="M1.65 18.7399C1.49961 18.6755 1.375 18.5208 1.375 18.4048C1.375 18.3317 1.31914 18.3274 0.6875 18.3274L0 18.3274L0 17.1243C0 16.3552 0.0171875 15.8868 0.0472656 15.8223C0.141797 15.6204 0.283594 15.5774 0.919531 15.5774C1.48672 15.5774 1.50391 15.5731 1.52539 15.4829C1.53828 15.427 1.60273 15.0317 1.67578 14.602L1.80469 13.8243L1.80469 11.9509L1.80469 10.0774L1.36641 10.0774L0.923828 10.0774L0.850781 10.2493C0.717578 10.5716 0.305078 10.6274 0.0859375 10.3481C0 10.2407 0 10.1806 0 7.77001L0 5.2993L0.124609 5.17469C0.348047 4.95126 0.713281 5.0243 0.846484 5.31219L0.923828 5.47548L2.93477 5.47977C4.28828 5.47977 4.94141 5.46688 4.94141 5.4368C4.94141 5.41102 4.74375 4.64188 4.50742 3.72665C4.03477 1.92626 4.00899 1.7329 4.14648 1.30751C4.23242 1.0454 4.52031 0.731725 4.78672 0.607116C4.87695 0.564147 5.07461 0.508287 5.225 0.482506C5.43555 0.448131 5.5 0.418053 5.5 0.362194C5.5 0.246178 5.66328 0.074303 5.81797 0.0227405C6.04141 -0.0503064 6.25625 0.0571155 6.35078 0.280553L6.42383 0.452428L10.7766 0.452428C14.9918 0.452428 15.125 0.448131 15.125 0.370787C15.125 0.250475 15.284 0.0785998 15.443 0.0227405C15.7137 -0.0674939 16.0273 0.164537 16.0273 0.452428C16.0273 0.499694 16.0574 0.538365 16.0918 0.538365C16.3496 0.538365 16.9641 1.03251 17.166 1.40204C17.4066 1.84462 17.4023 1.75868 17.4023 5.7161C17.4023 8.02352 17.3852 9.43719 17.3551 9.55751C17.2348 10.0903 16.8523 10.5673 16.341 10.8165L16.0488 10.9583L11.9238 10.9583C8.03945 10.9583 7.78594 10.954 7.5625 10.8809C7.25742 10.7778 6.77188 10.477 6.55274 10.2536L6.38516 10.0774L5.94258 10.0774L5.5 10.0774L5.5 11.9509L5.5 13.8243L5.62891 14.602C5.70195 15.0317 5.76641 15.427 5.7793 15.4829L5.80078 15.5774L9.13516 15.5774C12.7488 15.5774 12.6414 15.5688 12.7531 15.8138C12.7875 15.8911 12.8047 16.2864 12.8047 17.1243L12.8047 18.3274L9.37578 18.3274L5.94688 18.3274L5.9082 18.4649C5.88242 18.538 5.80938 18.6411 5.74492 18.6884C5.62461 18.7743 5.57305 18.7786 3.70391 18.7872C2.15273 18.7958 1.75742 18.7872 1.65 18.7399ZM11.9023 16.9524L11.9023 16.4798L6.40234 16.4798L0.902344 16.4798L0.902344 16.9524L0.902344 17.4251L6.40234 17.4251L11.9023 17.4251L11.9023 16.9524ZM4.85547 15.5473C4.85547 15.5259 4.78672 15.1177 4.70508 14.6321L4.55469 13.7513L4.55469 11.9165L4.55469 10.0774L3.65234 10.0774L2.75 10.0774L2.75 11.9165L2.75 13.7513L2.59961 14.6321C2.51797 15.1177 2.44922 15.5259 2.44922 15.5473C2.44922 15.5645 2.99063 15.5774 3.65234 15.5774C4.31406 15.5774 4.85547 15.5645 4.85547 15.5473ZM11.9023 9.1536L11.9023 8.22977L14.2012 8.22977L16.5 8.22977L16.5 5.23915C16.5 3.09501 16.4871 2.19696 16.4484 2.05087C16.4141 1.90907 16.341 1.79305 16.1992 1.65555C16.0617 1.51376 15.9457 1.44071 15.8039 1.40633C15.5547 1.34188 5.57734 1.33329 5.30664 1.39774C5.09609 1.44501 4.98438 1.57391 4.98438 1.77587C4.98438 1.92196 6.78047 8.89149 6.88359 9.1493C7.02109 9.49305 7.47656 9.89266 7.87617 10.013C8.01367 10.0602 8.50781 10.0731 9.98164 10.0731L11.9023 10.0774L11.9023 9.1536ZM13.5781 10.0473C13.4492 10.0001 13.3203 9.8454 13.2945 9.6993C13.2602 9.52313 13.3633 9.2954 13.5051 9.22665C13.5781 9.19227 13.5094 9.17938 13.2043 9.17938L12.8047 9.17508L12.8047 9.62626L12.8047 10.0774L13.2258 10.0731C13.4535 10.0731 13.6125 10.0602 13.5781 10.0473ZM14.8371 9.99149C14.5922 9.8454 14.575 9.47157 14.8027 9.27391L14.9145 9.17508L14.4203 9.17508L13.9305 9.17508L14.0551 9.29969C14.257 9.50594 14.2098 9.87977 13.9605 10.0173C13.8703 10.0688 13.9305 10.0731 14.416 10.0774L14.9746 10.0774L14.8371 9.99149ZM15.9758 9.96571C16.1992 9.85399 16.457 9.54461 16.457 9.38563C16.457 9.34266 16.4699 9.28251 16.4828 9.24383C16.5043 9.18368 16.4355 9.17508 15.877 9.17508L15.2453 9.17508L15.3785 9.2868C15.6191 9.48876 15.5848 9.85829 15.3055 10.0087C15.1938 10.0731 15.198 10.0731 15.473 10.0774C15.6879 10.0774 15.8039 10.0516 15.9758 9.96571ZM1.80469 7.80008L1.80469 6.42508L1.43516 6.42508L1.06133 6.42508L1.17305 6.51102C1.33633 6.63993 1.39648 6.85477 1.31484 7.04383C1.28047 7.12977 1.20313 7.22001 1.14297 7.25008C1.00117 7.31024 1.00547 7.33173 1.15586 7.41766C1.43086 7.57665 1.40508 8.00204 1.10859 8.1868C1.02695 8.23407 0.996875 8.27274 1.03555 8.27274C1.13867 8.27274 1.32344 8.47469 1.35352 8.61649C1.38789 8.77547 1.28047 9.00321 1.12578 9.09774C1.00977 9.17079 1.01406 9.17079 1.40938 9.17508L1.80469 9.17508L1.80469 7.80008ZM5.92969 9.16649C5.92539 9.1579 5.76641 8.54344 5.56875 7.80008L5.21641 6.44657L3.9832 6.43368L2.75 6.42508L2.75 7.80008L2.75 9.17508L4.33984 9.17508C5.21641 9.17508 5.92969 9.17079 5.92969 9.16649Z" fill="rgb(6,72,163)" fill-rule="nonzero" transform="matrix(1,0,0,-1,4.59766,20.3899)" />
		<path id="Vector 26" d="M1.63181 3.61267C1.49861 3.54822 1.36111 3.33337 1.36111 3.19158C1.36111 3.10993 1.2365 3.04978 1.19353 3.10993C1.14626 3.18728 0.982982 3.25173 0.828294 3.25173C0.493138 3.25173 0.291185 2.81775 0.506028 2.54704C0.622044 2.40095 0.591966 2.32361 0.402903 2.28923C0.222435 2.25486 0.0462627 2.08728 0.00759087 1.9197C-0.0482685 1.67048 0.213841 1.36111 0.47595 1.36111C0.587669 1.36111 0.604856 1.24509 0.506028 1.12048C0.291185 0.849778 0.493138 0.415794 0.828294 0.415794C0.982982 0.415794 1.14626 0.480247 1.19353 0.557591C1.2365 0.617747 1.36111 0.557591 1.36111 0.47595C1.36111 0.213841 1.67048 -0.0482685 1.9197 0.00759087C2.08728 0.0462627 2.25486 0.222435 2.28923 0.402903C2.31931 0.553294 2.41814 0.639232 2.474 0.557591C2.52556 0.47595 2.68884 0.415794 2.84353 0.415794C3.18728 0.415794 3.36345 0.811106 3.16579 1.13767C3.07556 1.28806 3.08415 1.36111 3.19587 1.36111C3.45368 1.36111 3.71579 1.67478 3.65993 1.9197C3.62126 2.08728 3.44509 2.25486 3.26892 2.28923C3.07556 2.32361 3.06267 2.35798 3.16579 2.52986C3.36345 2.85642 3.18298 3.25173 2.83064 3.25173C2.72322 3.25173 2.62009 3.21736 2.54704 3.1615C2.42243 3.06267 2.30642 3.07986 2.30642 3.19158C2.30642 3.33767 2.16892 3.54822 2.02712 3.61267C1.85095 3.69861 1.80368 3.69861 1.63181 3.61267ZM2.02712 2.23767C2.16033 2.17751 2.30642 1.96267 2.30642 1.83376C2.30642 1.80368 2.27634 1.71775 2.23767 1.6404C2.15603 1.46423 1.924 1.34392 1.74783 1.38259C1.58884 1.41697 1.41697 1.58884 1.38259 1.74783C1.34392 1.9197 1.46423 2.15603 1.63181 2.23767C1.80368 2.32361 1.85095 2.32361 2.02712 2.23767Z" fill="rgb(6,72,163)" fill-rule="nonzero" transform="matrix(1,0,0,-1,11.9162,14.8963)" />
		<path id="Vector 27" d="M0.284411 0.872265C-0.0636359 0.743358 -0.102308 0.197656 0.224255 0.0472656C0.297301 0.0171875 0.825817 0 1.85707 0L3.38675 0L3.51136 0.124609C3.64886 0.262109 3.67464 0.464062 3.58441 0.666015C3.48128 0.893749 3.42113 0.902343 1.82269 0.898046C1.01058 0.898046 0.318786 0.885155 0.284411 0.872265Z" fill="rgb(6,72,163)" fill-rule="nonzero" transform="matrix(1,0,0,-1,16.5164,18.0898)" />
	</g>
</svg>
