<svg viewBox="0 0 12 12" xmlns="http://www.w3.org/2000/svg" xmlns:xlink="http://www.w3.org/1999/xlink" width="12.000000" height="12.000000" fill="none">
	<rect id="owl-svgrepo-com (1) 2" width="12.000000" height="12.000000" x="0.000000" y="0.000000" />
	<g id="Group 4">
		<g id="Group 5">
			<circle id="Oval 3" cx="4.72333384" cy="4.90579891" r="0.453070164" fill="rgb(76,137,221)" />
		</g>
	</g>
	<g id="Group 6">
		<g id="Group 7">
			<ellipse id="Oval 4" rx="0.453070" ry="0.453070" cx="7.29477882" cy="4.90579891" fill="rgb(76,137,221)" />
		</g>
	</g>
	<g id="Group 8">
		<g id="Group 9">
			<path id="Vector 5" d="M9.59386 1.13704C8.72452 1.63909 7.42467 1.92705 6.02761 1.92705C4.60908 1.92705 3.26571 1.62566 2.43408 1.12089L2.15512 0.951508L2.15512 2.30202L2.52246 2.30202L2.52246 1.5892C3.41578 2.03971 4.6706 2.29441 6.02761 2.29441C7.34824 2.29441 8.59294 2.04398 9.50205 1.60124L9.50205 2.30202L9.86939 2.30202L9.86939 0.977922L9.59386 1.13704Z" fill="rgb(76,137,221)" fill-rule="nonzero" />
		</g>
	</g>
	<g id="Group 10">
		<g id="Group 11">
			<path id="Vector 6" d="M3.5307 9.53049L3.3263 9.83576C3.49085 9.94592 3.66764 10.0381 3.85177 10.1097L3.98491 9.76732C3.82577 9.70542 3.67296 9.62574 3.5307 9.53049Z" fill="rgb(76,137,221)" fill-rule="nonzero" />
		</g>
	</g>
	<g id="Group 12">
		<g id="Group 13">
			<path id="Vector 7" d="M3.53074 8.50195L3.32637 8.80723C3.49087 8.91736 3.66764 9.00952 3.85176 9.08114L3.98491 8.73874C3.82577 8.67687 3.67296 8.5972 3.53074 8.50195Z" fill="rgb(76,137,221)" fill-rule="nonzero" />
		</g>
	</g>
	<g id="Group 14">
		<g id="Group 15">
			<path id="Vector 8" d="M3.53074 7.4734L3.32639 7.77868C3.49092 7.88881 3.66769 7.98097 3.85174 8.05257L3.98492 7.71017C3.82582 7.64832 3.67301 7.56863 3.53074 7.4734Z" fill="rgb(76,137,221)" fill-rule="nonzero" />
		</g>
	</g>
	<g id="Group 16">
		<g id="Group 17">
			<rect id="Rectangle 1" width="0.612235" height="0.367335" x="6.146927" y="7.444901" fill="rgb(76,137,221)" />
		</g>
	</g>
	<g id="Group 18">
		<g id="Group 19">
			<path id="Vector 9" d="M1.96819 2.06664L1.70524 1.81012C0.605602 2.93711 0 4.42509 0 5.99999C0 7.10892 0.304945 8.19225 0.881859 9.13281L1.19498 8.94074C0.653555 8.05799 0.367336 7.04111 0.367336 5.99999C0.367336 4.52151 0.935883 3.12463 1.96819 2.06664Z" fill="rgb(76,137,221)" fill-rule="nonzero" />
		</g>
	</g>
	<g id="Group 20">
		<g id="Group 21">
			<path id="Vector 10" d="M1.52034 9.4151L1.22838 9.63806C1.36943 9.82275 1.52283 10.0012 1.68441 10.1684L1.94859 9.91317C1.79686 9.75609 1.65277 9.58854 1.52034 9.4151Z" fill="rgb(76,137,221)" fill-rule="nonzero" />
		</g>
	</g>
	<g id="Group 22">
		<g id="Group 23">
			<path id="Vector 11" d="M10.3156 1.83159L10.0514 2.08682C11.0711 3.14228 11.6327 4.53201 11.6327 6C11.6327 7.50452 11.0468 8.91899 9.9829 9.98289C8.919 11.0467 7.50452 11.6327 6 11.6327C4.99514 11.6327 4.02902 11.3716 3.17367 10.8735L4.25581 10.8735L4.26352 10.8933C4.27978 10.887 4.29572 10.8801 4.31184 10.8735L4.62012 10.8735C7.51456 10.8735 9.86939 8.5263 9.86939 5.64128L9.86939 2.81632L9.50203 2.81632L9.50203 3.10673C9.19172 2.94515 8.84592 2.86092 8.48538 2.86092C7.44717 2.86092 6.65761 3.43771 6.20206 4.52892C6.12682 4.70915 6.06675 4.8888 6.01882 5.05926C5.97185 4.88894 5.9127 4.70955 5.83828 4.5295C5.38704 3.4379 4.5941 2.86089 3.5452 2.86089C3.18227 2.86089 2.83432 2.94637 2.52244 3.11003L2.52244 2.84078L2.1551 2.84078L2.1551 10.8734L2.49984 10.8734C3.52399 11.6105 4.73313 12 6 12C7.60266 12 9.10941 11.3759 10.2426 10.2426C11.3759 9.10938 12 7.60265 12 6C12 4.43627 11.4018 2.95589 10.3156 1.83159ZM7.2949 4.12216C7.72702 4.12216 8.07858 4.47372 8.07858 4.90584C8.07858 5.33796 7.72702 5.68952 7.2949 5.68952C6.86278 5.68952 6.51122 5.33796 6.51122 4.90584C6.51122 4.47375 6.86278 4.12216 7.2949 4.12216ZM5.73565 5.45341C5.82007 5.85754 5.83156 6.15611 5.8317 6.16078L6.19882 6.16232C6.19901 6.15768 6.21204 5.8695 6.29524 5.4753C6.49371 5.82232 6.86731 6.05685 7.2949 6.05685C7.92959 6.05685 8.44592 5.5405 8.44592 4.90584C8.44592 4.27115 7.92956 3.75482 7.2949 3.75482C7.23661 3.75482 7.17933 3.75925 7.12334 3.76767C7.4866 3.40933 7.94187 3.2283 8.48538 3.2283C8.8538 3.2283 9.20323 3.33367 9.50203 3.53343L9.50203 5.64124C9.50203 6.2782 9.37835 6.88685 9.15401 7.44487L7.00406 7.44487L7.00406 7.81221L8.98805 7.81221C8.94638 7.89518 8.9026 7.97692 8.8564 8.05711L6.46531 8.05711L6.46531 8.42444L8.62181 8.42444C8.56308 8.50802 8.50184 8.5897 8.43809 8.66934L6.9551 8.66934L6.9551 9.03668L8.11256 9.03668C7.29999 9.86641 6.19324 10.4086 4.96207 10.4939C5.1709 10.3291 5.35568 10.1333 5.51051 9.91096C5.82872 9.45419 5.99693 8.9175 5.99693 8.35884C5.99693 7.39014 5.48752 6.53831 4.72261 6.05679C4.72292 6.05679 4.72317 6.05681 4.72348 6.05681C5.16005 6.05683 5.54063 5.8125 5.73565 5.45341ZM5.50716 4.90584C5.50716 5.33796 5.15559 5.68952 4.72348 5.68952C4.29136 5.68952 3.9398 5.33796 3.9398 4.90584C3.9398 4.47372 4.29136 4.12216 4.72348 4.12216C5.15562 4.12216 5.50716 4.47375 5.50716 4.90584ZM2.52241 3.53746C2.82258 3.33503 3.17426 3.22828 3.5452 3.22828C4.09751 3.22828 4.5581 3.41092 4.92312 3.7725C4.85822 3.76108 4.79159 3.75482 4.72345 3.75482C4.08877 3.75482 3.57244 4.27118 3.57244 4.90584C3.57244 5.22018 3.69921 5.50537 3.90417 5.71331C3.70324 5.6658 3.4938 5.64053 3.27856 5.64053C3.02004 5.64053 2.76682 5.67646 2.52241 5.74722L2.52241 3.53746L2.52241 3.53746ZM2.52246 9.00323C2.66789 9.23831 2.85002 9.45218 3.06495 9.63703L3.30448 9.35854C2.88963 9.00166 2.61647 8.52004 2.52246 7.98825L2.52246 7.97376C2.66784 8.20903 2.84965 8.42301 3.06387 8.60746L3.30354 8.3291C2.89064 7.97357 2.61675 7.49163 2.52246 6.96093L2.52246 6.94272C2.66855 7.17977 2.85054 7.39528 3.06375 7.57886L3.30345 7.30049C2.94279 6.9899 2.68425 6.57473 2.56364 6.11868C2.79366 6.04523 3.03331 6.00794 3.2786 6.00794C4.57498 6.00794 5.62962 7.0626 5.62962 8.35895C5.62962 8.84212 5.48419 9.30623 5.20913 9.70113C4.96231 10.0555 4.62769 10.3318 4.23684 10.5062L2.52246 10.5062L2.52246 9.00323Z" fill="rgb(76,137,221)" fill-rule="nonzero" />
		</g>
	</g>
	<g id="Group 24">
		<g id="Group 25">
			<path id="Vector 12" d="M6 0C4.89794 0 3.82036 0.301453 2.88382 0.871688L3.07486 1.18547C3.95384 0.65025 4.96533 0.367336 6 0.367336C7.05061 0.367336 8.07546 0.658453 8.96374 1.20914L9.15731 0.896953C8.21083 0.310172 7.11909 0 6 0Z" fill="rgb(76,137,221)" fill-rule="nonzero" />
		</g>
	</g>
	<g id="Group 26">
		<g id="Group 27">
			<path id="Vector 13" d="M10.8256 5.66925L10.4591 5.69402C10.4659 5.79516 10.4694 5.89809 10.4694 6C10.4694 7.01923 10.1353 7.97902 9.50327 8.77566L9.79106 9.00396C10.4752 8.14174 10.8368 7.10302 10.8368 6.00002C10.8367 5.88987 10.833 5.77859 10.8256 5.66925Z" fill="rgb(76,137,221)" fill-rule="nonzero" />
		</g>
	</g>
	<g id="Group 28">
		<g id="Group 29">
			<path id="Vector 14" d="M10.6876 4.80359L10.3316 4.89417C10.3689 5.04078 10.399 5.19113 10.4212 5.34106L10.7846 5.28741C10.7606 5.12508 10.728 4.96233 10.6876 4.80359Z" fill="rgb(76,137,221)" fill-rule="nonzero" />
		</g>
	</g>
</svg>
