<svg viewBox="0 0 574.707 248.291" xmlns="http://www.w3.org/2000/svg" xmlns:xlink="http://www.w3.org/1999/xlink" width="574.707153" height="248.290863" fill="none">
	<rect id="i-_1_ 1" width="559.779602" height="130.277344" x="0.000000" y="0.000000" transform="matrix(0.97632,0.216332,-0.216332,0.97632,28.1832,0)" />
	<g id="Group 47">
		<path id="Vector 1050" d="M0 122.105C0 119.732 0 119.732 3.04228 119.063C4.74596 118.698 6.9364 118.393 7.90993 118.393C11.0739 118.393 16.1849 116.081 17.8886 113.891C18.7404 112.735 20.4441 111.214 21.6002 110.483C23.4256 109.327 24.2774 109.206 27.0155 109.51C30.727 109.997 37.6634 108.658 40.5232 106.894C41.5575 106.285 43.2004 104.216 44.2348 102.148C46.486 97.9492 47.5813 96.9149 50.7452 95.5763C55.4304 93.5684 58.5335 95.8196 60.1155 102.33C61.3932 107.441 63.1577 108.78 68.6339 108.78C84.6971 108.719 98.509 108.171 100.091 107.563C101.856 106.833 102.038 106.528 103.62 98.9836C107.149 82.677 107.818 68.9259 105.567 59.6774C105.08 57.6695 104.715 54.4446 104.654 52.5584C104.654 49.7595 104.959 48.786 106.115 47.3866C107.575 45.7437 107.636 45.7437 108.731 46.7781C109.887 47.8733 110.07 51.4632 109.583 60.59C109.461 62.7805 109.522 67.709 109.826 71.5423C110.131 76.5924 110.009 81.095 109.279 87.7272C107.636 102.999 107.94 105.007 112.199 108.232C113.355 109.145 114.451 110.423 114.694 111.031C115.059 112.187 115.85 112.248 147.429 112.187L179.799 112.187L183.45 107.319C186.517 103.208 187.847 101.504 188.3 99.5926C188.665 98.0532 188.46 96.3789 188.135 93.2033C187.465 86.5711 188.135 66.6138 189.169 61.807C190.386 56.27 189.96 49.1511 188.013 42.3972C184.971 31.9318 185.762 28.3419 191.055 28.3419C192.881 28.3419 193.915 28.7678 195.01 29.8022C196.47 31.2625 196.531 31.5667 196.653 41.8496C196.896 60.8943 196.836 61.8678 195.132 67.0397C193.002 73.7327 192.455 76.3491 191.603 84.0156C190.873 91.0737 191.116 100.566 192.211 103.304C192.881 105.068 201.216 111.7 202.738 111.7C204.137 111.7 204.989 108.719 205.719 101.661C206.632 92.534 207.24 88.2748 208.7 81.5818C209.917 75.984 209.978 74.9496 209.309 68.8042C208.944 65.1535 208.457 58.5822 208.275 54.2013C207.909 45.0136 209.066 14.3474 209.978 10.0882C210.952 5.40309 213.933 3.2735 216.245 5.58563C217.645 6.98508 217.462 10.3924 215.393 20.797C212.108 37.5296 211.621 41.5454 211.317 56.3309C211.073 67.4048 211.256 72.2724 211.986 77.931C213.203 86.997 213.203 91.9864 212.047 98.1318C211.134 102.939 210.891 107.989 211.499 110.179C211.804 111.335 212.351 111.396 226.832 111.396C237.359 111.457 244.417 111.761 250.38 112.491C255.065 113.1 264.983 113.83 272.467 114.134C279.89 114.438 286.218 114.803 286.461 114.925C286.704 115.108 298.143 115.534 311.834 115.96C334.286 116.629 337.45 116.629 343.352 115.716C346.942 115.169 350.836 114.743 351.992 114.743C354.121 114.743 359.476 111.822 361.545 109.449C362.153 108.841 363.005 106.224 363.492 103.73C363.978 101.235 364.891 97.7059 365.56 95.8805C366.291 94.0551 367.386 90.6478 368.055 88.2748C368.724 85.9627 370.428 81.7035 371.767 78.9046C375.417 71.4206 376.634 66.3095 376.634 59.0689C376.634 52.6193 376.391 51.0373 373.957 36.556C370.002 13.2522 370.732 1.1439 376.148 0.4746C376.939 0.352908 378.338 0.839675 379.19 1.56982C382.232 3.88195 382.415 6.62001 381.685 37.347C381.319 52.6193 381.198 66.6746 381.502 68.5608C382.11 72.6983 383.571 75.6798 388.56 82.8595C390.69 85.9627 393.063 90.1002 393.793 92.1689C394.523 94.2377 395.253 95.8805 395.436 95.8805C395.922 95.8805 402.007 85.5976 402.798 83.468C403.163 82.4945 403.406 78.4787 403.285 74.3412L424.702 84.3199C430.909 90.4653 433.708 93.6901 435.655 97.0974C439.792 104.216 445.39 112.37 445.998 112.005C446.303 111.822 446.85 110.666 447.215 109.388C447.641 108.171 448.736 105.007 449.71 102.391C451.596 97.4625 452.63 89.9176 452.691 81.5818C452.691 78.6612 452.996 76.8358 453.665 75.9231C454.943 74.0369 457.011 74.402 458.107 76.7141C458.898 78.2961 458.837 78.8437 457.681 82.1902C456.038 86.6928 456.038 87.1796 457.559 90.4652C458.411 92.4123 458.776 94.481 458.776 98.0101C458.776 105.251 460.966 108.597 465.53 108.658C466.99 108.658 467.173 108.354 467.842 105.007C468.268 102.999 468.815 97.4625 469.12 92.7165C469.424 87.9097 469.85 82.7987 470.032 81.2776C470.337 78.9046 468.937 60.7726 468.207 58.1562C467.538 55.479 467.233 39.2941 467.903 36.6169C468.268 34.9132 468.694 26.8816 468.876 18.6674C469.241 2.4825 469.424 1.50897 472.588 0.292059C473.805 -0.194706 474.413 -0.0730144 475.143 0.657133C475.995 1.44813 475.934 2.05658 475.022 6.55916C472.162 19.8843 472.04 20.797 472.101 39.5983C472.162 49.6378 472.344 59.6774 472.527 61.9287C472.77 64.3625 472.588 67.5873 472.101 69.9603C471.432 73.3676 471.493 74.8279 472.344 80.4866C473.135 85.5976 473.318 89.6743 473.075 98.8619C472.831 107.928 472.953 110.849 473.561 111.214C473.926 111.457 477.638 111.518 481.715 111.335L489.138 110.909L491.024 112.856C492.789 114.621 493.032 114.682 494.249 113.83C494.979 113.343 496.196 112.917 496.926 112.917C500.333 112.917 501.733 105.92 500.333 96.063C499.603 90.5261 499.542 88.7007 500.212 84.5024C501.185 77.9919 500.638 74.0978 498.021 68.7434L495.831 64.3625L496.257 58.3996C496.622 53.2886 496.926 52.1934 498.082 51.0373C499.664 49.4553 501.49 49.2119 502.585 50.5505C503.132 51.2198 503.072 52.0717 502.281 54.5663C501.429 57.1219 501.307 58.8864 501.611 63.2673C502.098 69.8994 502.646 85.415 502.767 98.0101C502.889 106.468 503.011 107.319 504.41 109.875C505.262 111.396 506.357 112.674 506.844 112.735C507.331 112.796 509.034 111.274 510.556 109.388C512.807 106.589 514.632 105.251 519.074 102.817C526.558 98.8619 527.106 97.8276 527.41 87.6663C527.592 81.3384 527.41 79.5739 526.071 74.3412L524.489 68.2566L525.098 53.3494C526.254 26.1514 526.74 23.4134 530.391 22.5007C534.65 21.4055 535.563 25.1171 535.259 42.3364C535.076 54.7489 534.955 55.6616 533.312 60.59C530.635 68.8651 529.965 73.0025 529.965 82.3119C529.965 91.743 530.939 98.3752 533.008 102.756C534.711 106.407 539.457 110.788 542.743 111.761C544.994 112.431 545.724 112.37 549.375 111.092C554.364 109.388 556.19 109.692 558.258 112.735C560.206 115.655 560.449 121.131 558.624 121.74C558.015 121.922 522.116 122.044 478.916 121.922C435.715 121.862 400.182 121.983 399.999 122.227C399.756 122.409 399.086 122.348 398.478 121.983C397.809 121.679 397.322 121.618 397.322 121.862C397.322 122.287 360.936 122.47 359.293 122.044C358.989 121.983 358.563 121.922 358.381 122.044C357.285 122.47 353.452 122.227 353.27 121.74C353.087 121.314 352.965 121.314 352.965 121.74C352.905 122.105 348.889 122.227 341.526 122.044C322.421 121.557 300.942 121.801 300.699 122.592C300.577 123.018 300.151 122.957 299.543 122.348C299.056 121.862 298.326 121.618 297.961 121.862C297.109 122.409 282.08 122.348 281.168 121.801C280.802 121.557 280.498 121.618 280.498 121.862C280.498 122.166 279.281 122.348 277.76 122.287C276.239 122.227 275.022 122.409 275.022 122.713C275.022 123.018 274.718 123.261 274.353 123.261C274.049 123.261 273.866 123.078 273.988 122.835C274.17 122.531 260.237 122.348 243.017 122.348C225.798 122.348 211.743 122.105 211.743 121.862C211.743 121.557 211.378 121.557 211.013 121.862C209.857 122.531 208.761 122.592 208.335 121.983C208.153 121.679 207.727 121.618 207.362 121.801C206.997 122.044 204.502 122.348 201.886 122.47C198.235 122.713 197.14 122.531 197.14 121.922C197.14 121.314 196.957 121.375 196.531 122.044C195.984 122.835 195.862 122.835 195.314 122.044C195.01 121.557 194.706 121.436 194.706 121.801C194.706 122.653 187.222 122.653 186.674 121.801C186.372 121.377 186.189 121.38 186.188 121.74C186.188 122.348 169.333 122.47 154.183 122.044C150.775 121.983 147.672 122.105 147.246 122.348C146.82 122.592 146.273 122.409 145.969 121.983C145.482 121.253 145.299 121.253 144.813 122.044C144.265 122.835 144.204 122.835 144.204 122.044C144.204 121.253 144.143 121.253 143.596 122.044C143.291 122.531 142.987 122.713 142.987 122.348C142.987 121.922 127.715 121.862 97.7789 122.044C51.1712 122.287 31.0313 122.287 28.9017 121.862C28.2324 121.679 27.198 121.862 26.6504 122.105C26.0419 122.409 25.4943 122.409 25.3118 122.105C24.9467 121.496 17.1585 122.835 15.2722 123.809C14.6029 124.174 10.8914 124.478 7.05809 124.478L0 124.478L0 122.105Z" fill="rgb(239,0,42)" fill-rule="evenodd" transform="matrix(0.97632,0.216332,0.216332,-0.97632,1.25461,121.53)" />
		<path id="Vector 1051" d="M0 0.608456C0 0.304228 0.304222 0 0.608444 0C0.973511 0 1.21689 0.304228 1.21689 0.608456C1.21689 0.973529 0.973511 1.21691 0.608444 1.21691C0.304222 1.21691 0 0.973529 0 0.608456Z" fill="rgb(239,0,42)" fill-rule="nonzero" transform="matrix(0.97632,0.216332,0.216332,-0.97632,371.354,90.9968)" />
		<path id="Vector 1052" d="M0.425917 2.00987C0.182536 1.82733 0 1.27972 0 0.792954C0 -0.11973 1.58198 -0.302267 2.06874 0.549572C2.49466 1.21887 0.973524 2.55748 0.425917 2.00987Z" fill="rgb(239,0,42)" fill-rule="nonzero" transform="matrix(0.97632,0.216332,0.216332,-0.97632,144.957,43.95)" />
		<path id="Vector 1053" d="M0.161309 1.88621C-0.325454 0.973528 0.343845 0 1.43906 0C1.98667 0 2.2909 0.425918 2.16921 1.03437C1.92582 2.25128 0.708917 2.73805 0.161309 1.88621Z" fill="rgb(239,0,42)" fill-rule="nonzero" transform="matrix(0.97632,0.216332,0.216332,-0.97632,197.373,55.5623)" />
		<path id="Vector 1054" d="M0.156245 2.49467C-0.330523 1.70368 0.399628 0 1.25147 0C2.59008 0 3.50277 1.03438 3.07685 2.00791C2.65093 3.10313 0.703858 3.40736 0.156245 2.49467Z" fill="rgb(239,0,42)" fill-rule="nonzero" transform="matrix(0.97632,0.216332,0.216332,-0.97632,252.289,69.6002)" />
		<path id="Vector 1055" d="M0.0605038 1.46371C0.303885 -0.361657 2.67686 -0.544194 2.67686 1.28117C2.67686 2.07217 2.19009 2.55893 1.27741 2.68062C0.0605038 2.86316 -0.122032 2.68062 0.0605038 1.46371Z" fill="rgb(239,0,42)" fill-rule="nonzero" transform="matrix(0.97632,0.216332,0.216332,-0.97632,135.237,45.9109)" />
		<path id="Vector 1056" d="M0.0979533 2.55253C-0.449658 1.21392 1.43656 -0.672305 2.34925 0.240383C3.26193 1.15307 2.77517 3.10014 1.49741 3.34352C0.949794 3.46521 0.280491 3.10014 0.0979533 2.55253Z" fill="rgb(239,0,42)" fill-rule="nonzero" transform="matrix(0.97632,0.216332,0.216332,-0.97632,371.475,99.5586)" />
		<path id="Vector 1057" d="M0.194317 2.49466C-0.41414 1.52114 0.498545 0 1.65461 0C2.81068 0 3.47998 1.03437 3.05406 2.31213C2.74983 3.16396 0.681082 3.28565 0.194317 2.49466Z" fill="rgb(239,0,42)" fill-rule="nonzero" transform="matrix(0.97632,0.216332,0.216332,-0.97632,98.198,39.196)" />
		<path id="Vector 1058" d="M0 0.912683C0 0.425919 0.54761 0 1.21691 0C1.88621 0 2.43382 0.425919 2.43382 0.912683C2.43382 1.39945 1.88621 1.82537 1.21691 1.82537C0.54761 1.82537 0 1.39945 0 0.912683Z" fill="rgb(239,0,42)" fill-rule="nonzero" transform="matrix(0.97632,0.216332,0.216332,-0.97632,214.002,64.2326)" />
		<path id="Vector 1059" d="M1.08421 4.77115C-0.193544 4.04101 -0.37608 1.78972 0.719138 0.694496C1.81436 -0.400726 4.12649 -0.157343 4.85663 1.12042C5.70847 2.76325 5.64762 3.3717 4.49156 4.46693C3.39634 5.56215 2.5445 5.68384 1.08421 4.77115Z" fill="rgb(239,0,42)" fill-rule="nonzero" transform="matrix(0.97632,0.216332,0.216332,-0.97632,252.438,76.452)" />
		<path id="Vector 1060" d="M0.0838631 2.77555C-0.0986734 2.41048 0.0230176 1.55864 0.388091 0.889334C0.9357 -0.145043 1.23993 -0.205889 2.2743 0.341722C2.9436 0.645951 3.43036 1.43695 3.30867 1.98456C3.06529 3.14063 0.692318 3.74908 0.0838631 2.77555Z" fill="rgb(239,0,42)" fill-rule="nonzero" transform="matrix(0.97632,0.216332,0.216332,-0.97632,85.4475,37.9048)" />
		<path id="Vector 1061" d="M0.0264416 1.01275C0.269824 -0.265011 1.36504 -0.386702 1.60842 0.9519C1.73012 1.56036 1.42589 1.98627 0.817433 1.98627C0.208978 1.98627 -0.0952493 1.6212 0.0264416 1.01275Z" fill="rgb(239,0,42)" fill-rule="nonzero" transform="matrix(0.97632,0.216332,0.216332,-0.97632,132.544,46.9712)" />
		<path id="Vector 1062" d="M0.0606081 2.41861C-0.121929 1.93184 0.121454 1.08001 0.60822 0.593244C1.39921 -0.197748 1.58175 -0.197748 2.25105 0.593244C2.67697 1.14085 2.92036 1.99269 2.67697 2.47945C2.25105 3.69636 0.547374 3.63552 0.0606081 2.41861Z" fill="rgb(239,0,42)" fill-rule="nonzero" transform="matrix(0.97632,0.216332,0.216332,-0.97632,239.657,72.7684)" />
		<path id="Vector 1063" d="M0.970856 4.82608C-0.732821 3.1224 -0.124365 0.810274 2.24861 0.0801271C3.70891 -0.406637 6.08189 1.41873 6.08189 3.00071C6.08189 4.21762 4.37821 5.79961 3.03961 5.79961C2.43115 5.79961 1.45762 5.37369 0.970856 4.82608Z" fill="rgb(239,0,42)" fill-rule="nonzero" transform="matrix(0.97632,0.216332,0.216332,-0.97632,57.1097,35.4087)" />
		<path id="Vector 1064" d="M0.056983 1.07886C0.300364 -0.198891 2.06488 -0.442273 2.06488 0.896325C2.06488 1.38309 1.57812 1.86985 0.969662 1.99154C0.117828 2.17408 -0.125553 1.9307 0.056983 1.07886Z" fill="rgb(239,0,42)" fill-rule="nonzero" transform="matrix(0.97632,0.216332,0.216332,-0.97632,213.082,68.686)" />
		<path id="Vector 1065" d="M0.451663 1.96466C-0.400176 1.11282 0.0257435 -0.164934 1.12096 0.017603C1.66858 0.139294 2.15534 0.626059 2.15534 1.05198C2.15534 2.02551 1.06012 2.57312 0.451663 1.96466Z" fill="rgb(239,0,42)" fill-rule="nonzero" transform="matrix(0.97632,0.216332,0.216332,-0.97632,82.7185,40.6452)" />
		<path id="Vector 1066" d="M0.116061 1.78542C-0.370702 0.99443 0.78536 -0.344173 1.5155 0.0817464C2.48903 0.690202 2.36734 2.27219 1.33297 2.27219C0.846205 2.27219 0.298597 2.0288 0.116061 1.78542Z" fill="rgb(239,0,42)" fill-rule="nonzero" transform="matrix(0.97632,0.216332,0.216332,-0.97632,134.55,52.6942)" />
		<path id="Vector 1067" d="M0.944001 4.54161C-0.212069 3.44639 -0.272915 2.83794 0.578926 1.1951C1.79584 -1.05618 5.44659 0.0998843 5.44659 2.77709C5.44659 5.3326 2.76937 6.36698 0.944001 4.54161Z" fill="rgb(239,0,42)" fill-rule="nonzero" transform="matrix(0.97632,0.216332,0.216332,-0.97632,527.818,144.402)" />
		<path id="Vector 1068" d="M0.790308 2.00791C-0.487447 1.58199 -0.122374 0 1.21623 0C1.88553 0 2.43314 0.365075 2.43314 0.851842C2.43314 1.94707 1.76384 2.37299 0.790308 2.00791Z" fill="rgb(239,0,42)" fill-rule="nonzero" transform="matrix(0.97632,0.216332,0.216332,-0.97632,241.998,84.1465)" />
		<path id="Vector 1069" d="M0.116065 1.78542C-0.3707 0.994431 0.785366 -0.344173 1.51551 0.0817465C2.48904 0.690203 2.36735 2.27219 1.33298 2.27219C0.846212 2.27219 0.298602 2.02881 0.116065 1.78542Z" fill="rgb(239,0,42)" fill-rule="nonzero" transform="matrix(0.97632,0.216332,0.216332,-0.97632,69.1439,46.9265)" />
		<path id="Vector 1070" d="M0.777627 4.74595C-0.926049 3.04227 0.351708 0 2.84638 0C4.6109 0 5.64527 1.39945 5.40189 3.46819C5.2802 4.86764 4.91513 5.23271 3.39399 5.3544C2.35961 5.4761 1.20355 5.17187 0.777627 4.74595Z" fill="rgb(239,0,42)" fill-rule="nonzero" transform="matrix(0.97632,0.216332,0.216332,-0.97632,70.7366,52.4307)" />
		<path id="Vector 1071" d="M0 1.30765C0 0.273284 1.64283 -0.45686 2.1296 0.334129C2.37298 0.699201 2.31214 1.24681 2.1296 1.55104C1.58199 2.46371 0 2.28118 0 1.30765Z" fill="rgb(239,0,42)" fill-rule="nonzero" transform="matrix(0.97632,0.216332,0.216332,-0.97632,198.627,77.3715)" />
		<path id="Vector 1072" d="M0 0.608456C0 0.304228 0.30423 0 0.608459 0C0.973535 0 1.21692 0.304228 1.21692 0.608456C1.21692 0.973529 0.973535 1.21691 0.608459 1.21691C0.30423 1.21691 0 0.973529 0 0.608456Z" fill="rgb(239,0,42)" fill-rule="nonzero" transform="matrix(0.97632,0.216332,0.216332,-0.97632,469.716,136.474)" />
		<path id="Vector 1073" d="M0.0742745 1.5888C-0.351645 0.919502 1.1695 -0.419101 1.71711 0.12851C1.96049 0.311046 2.14303 0.858656 2.14303 1.34542C2.14303 2.2581 0.56104 2.44064 0.0742745 1.5888Z" fill="rgb(239,0,42)" fill-rule="nonzero" transform="matrix(0.97632,0.216332,0.216332,-0.97632,436.602,132.571)" />
		<path id="Vector 1074" d="M0 0.608218C0 0.121453 0.304225 -0.121929 0.608451 0.0606079C0.973521 0.30399 1.09521 0.729909 0.912676 1.03414C0.36507 1.88597 0 1.70344 0 0.608218Z" fill="rgb(239,0,42)" fill-rule="nonzero" transform="matrix(0.97632,0.216332,0.216332,-0.97632,470.299,139.47)" />
		<path id="Vector 1075" d="M0.0914456 1.13114C-0.334469 0.400994 0.821584 -0.329155 1.61257 0.157611C2.28186 0.583531 1.85595 1.67875 1.00412 1.67875C0.699895 1.67875 0.334825 1.43537 0.0914456 1.13114Z" fill="rgb(239,0,42)" fill-rule="nonzero" transform="matrix(0.97632,0.216332,0.216332,-0.97632,512.663,148.956)" />
		<path id="Vector 1076" d="M0.148787 1.63445C-0.45967 0.600076 0.939779 -0.555987 1.79162 0.295849C2.52176 1.02599 2.035 2.30375 1.12232 2.30375C0.818088 2.30375 0.392169 1.99952 0.148787 1.63445Z" fill="rgb(239,0,42)" fill-rule="nonzero" transform="matrix(0.97632,0.216332,0.216332,-0.97632,231.364,90.3821)" />
		<path id="Vector 1077" d="M0.0694321 1.56805C-0.113106 1.26382 0.0694322 0.716214 0.5562 0.35114C1.16466 -0.135625 1.52974 -0.135625 2.07735 0.472831C2.44243 0.959596 2.56412 1.50721 2.32073 1.68974C1.77312 2.2982 0.434508 2.23735 0.0694321 1.56805Z" fill="rgb(239,0,42)" fill-rule="nonzero" transform="matrix(0.97632,0.216332,0.216332,-0.97632,490.673,150.14)" />
		<path id="Vector 1078" d="M0 0.608456C0 0.304228 0.30423 0 0.608459 0C0.973535 0 1.21692 0.304228 1.21692 0.608456C1.21692 0.973529 0.973535 1.21691 0.608459 1.21691C0.30423 1.21691 0 0.973529 0 0.608456Z" fill="rgb(239,0,42)" fill-rule="nonzero" transform="matrix(0.97632,0.216332,0.216332,-0.97632,406.687,131.233)" />
		<path id="Vector 1079" d="M0 0.608454C0 0.304227 0.425922 0 0.973537 0C1.4603 0 1.70369 0.304227 1.52115 0.608454C1.33861 0.973526 0.912691 1.21691 0.547614 1.21691C0.243384 1.21691 0 0.973526 0 0.608454Z" fill="rgb(239,0,42)" fill-rule="nonzero" transform="matrix(0.97632,0.216332,0.216332,-0.97632,450.383,142.161)" />
		<path id="Vector 1080" d="M0.129474 1.04216C-0.113906 0.737934 0.00778392 0.312013 0.31201 0.129476C0.616235 -0.113908 1.04215 0.00778398 1.22469 0.312013C1.46807 0.616242 1.34638 1.04216 1.04215 1.2247C0.737926 1.46808 0.31201 1.34639 0.129474 1.04216Z" fill="rgb(239,0,42)" fill-rule="nonzero" transform="matrix(0.97632,0.216332,0.216332,-0.97632,489.145,151.132)" />
		<path id="Vector 1081" d="M0.148789 1.63445C-0.459676 0.600078 0.939792 -0.555989 1.79164 0.29585C2.5218 1.026 2.03503 2.30375 1.12233 2.30375C0.818099 2.30375 0.392174 1.99953 0.148789 1.63445Z" fill="rgb(239,0,42)" fill-rule="nonzero" transform="matrix(0.97632,0.216332,0.216332,-0.97632,404.698,135.021)" />
		<path id="Vector 1082" d="M0.150747 2.1296C-0.336017 0.912685 0.39413 0 1.79358 0C2.64542 0 2.94964 0.42592 2.94964 1.52114C2.94964 2.61636 2.64542 3.04228 1.73273 3.04228C1.06343 3.04228 0.333284 2.61636 0.150747 2.1296Z" fill="rgb(239,0,42)" fill-rule="nonzero" transform="matrix(0.97632,0.216332,0.216332,-0.97632,537.009,165.095)" />
		<path id="Vector 1083" d="M0.296808 4.02361C-0.372494 2.19824 0.114271 0.616254 1.51372 0.190335C4.19093 -0.661502 6.25968 1.46809 5.40784 4.1453C4.86023 5.97066 0.96611 5.84897 0.296808 4.02361Z" fill="rgb(239,0,42)" fill-rule="nonzero" transform="matrix(0.97632,0.216332,0.216332,-0.97632,137.448,79.5603)" />
		<path id="Vector 1084" d="M0.359219 4.17669C-0.188389 3.20316 -0.127543 2.5947 0.663446 1.43864C2.30627 -1.11688 5.22685 -0.082504 5.22685 3.08147C5.22685 5.63698 1.57613 6.48882 0.359219 4.17669Z" fill="rgb(239,0,42)" fill-rule="nonzero" transform="matrix(0.97632,0.216332,0.216332,-0.97632,452.221,151.895)" />
		<path id="Vector 1085" d="M0 1.33297C0 0.846206 0.243382 0.298597 0.486763 0.116061C1.27775 -0.370703 2.61635 0.785361 2.19044 1.51551C1.58198 2.48903 0 2.36734 0 1.33297Z" fill="rgb(239,0,42)" fill-rule="nonzero" transform="matrix(0.97632,0.216332,0.216332,-0.97632,130.579,77.8999)" />
		<path id="Vector 1086" d="M0.0857728 0.608458C0.268311 0.304229 0.572542 0 0.75508 0C0.876772 0 0.998464 0.304229 0.998464 0.608458C0.998464 0.973532 0.694234 1.21692 0.329157 1.21692C0.0249267 1.21692 -0.0967655 0.973532 0.0857728 0.608458Z" fill="rgb(239,0,42)" fill-rule="nonzero" transform="matrix(0.97632,0.216332,0.216332,-0.97632,366.707,129.853)" />
		<path id="Vector 1087" d="M0.451686 1.96466C-0.400168 1.11282 0.0257587 -0.164934 1.121 0.017603C1.66862 0.139294 2.15539 0.626059 2.15539 1.05198C2.15539 2.02551 1.06015 2.57312 0.451686 1.96466Z" fill="rgb(239,0,42)" fill-rule="nonzero" transform="matrix(0.97632,0.216332,0.216332,-0.97632,365.833,132.669)" />
		<path id="Vector 1088" d="M0 1.45279C0 0.114189 0.243382 -0.129193 1.39945 0.0533438C2.25129 0.175035 2.73805 0.661798 2.73805 1.45279C2.73805 2.24378 2.25129 2.73054 1.39945 2.85224C0.243382 3.03477 0 2.79139 0 1.45279Z" fill="rgb(239,0,42)" fill-rule="nonzero" transform="matrix(0.97632,0.216332,0.216332,-0.97632,124.603,82.3696)" />
		<path id="Vector 1089" d="M0.0914764 1.13114C-0.334443 0.400992 0.821624 -0.329154 1.61262 0.15761C2.28192 0.583528 1.856 1.67875 1.00416 1.67875C0.699933 1.67875 0.334859 1.43536 0.0914764 1.13114Z" fill="rgb(239,0,42)" fill-rule="nonzero" transform="matrix(0.97632,0.216332,0.216332,-0.97632,377.43,137.687)" />
		<path id="Vector 1090" d="M1.34669 8.32369C-0.904603 6.0724 -0.235301 2.05659 2.62444 0.596291C4.26728 -0.255549 4.5715 -0.194703 6.64026 0.778828C11.4471 3.15181 10.3518 8.99299 5.05827 9.35807C3.17205 9.47976 2.25937 9.23638 1.34669 8.32369ZM8.52647 5.64648C8.40478 4.00365 8.40478 3.9428 8.1614 5.22056C7.97886 6.0724 7.43125 7.28932 6.88364 7.89777C5.91011 8.99299 5.91011 8.99299 7.24871 8.32369C8.22224 7.77608 8.58732 7.10678 8.52647 5.64648Z" fill="rgb(239,0,42)" fill-rule="nonzero" transform="matrix(0.97632,0.216332,0.216332,-0.97632,365.041,147.295)" />
		<path id="Vector 1091" d="M0.195892 1.4603C-0.351721 0.851841 0.317584 0 1.35196 0C1.83873 0 2.20381 0.425921 2.20381 0.912687C2.20381 1.82537 0.926042 2.19045 0.195892 1.4603Z" fill="rgb(239,0,42)" fill-rule="nonzero" transform="matrix(0.97632,0.216332,0.216332,-0.97632,127.324,88.0283)" />
		<path id="Vector 1092" d="M0.161325 1.88622C-0.325442 0.973531 0.343862 0 1.43909 0C1.9867 0 2.29093 0.42592 2.16924 1.03438C1.92585 2.25129 0.708937 2.73806 0.161325 1.88622Z" fill="rgb(239,0,42)" fill-rule="nonzero" transform="matrix(0.97632,0.216332,0.216332,-0.97632,503.801,174.564)" />
		<path id="Vector 1093" d="M0.0266496 0.928237C0.391723 -0.166984 1.73032 -0.349521 1.73032 0.684855C1.73032 1.23247 1.30441 1.65838 0.756796 1.65838C0.209186 1.65838 -0.0950414 1.35416 0.0266496 0.928237Z" fill="rgb(239,0,42)" fill-rule="nonzero" transform="matrix(0.97632,0.216332,0.216332,-0.97632,489.733,173.145)" />
		<path id="Vector 1094" d="M0.146021 1.59883C-0.097357 1.23376 -0.0365126 0.625301 0.328554 0.260228C0.693621 -0.104846 1.05869 -0.104846 1.36291 0.381919C1.60629 0.746992 1.54544 1.35545 1.18038 1.72052C0.815309 2.08559 0.450243 2.08559 0.146021 1.59883Z" fill="rgb(239,0,42)" fill-rule="nonzero" transform="matrix(0.97632,0.216332,0.216332,-0.97632,493.571,175.804)" />
		<path id="Vector 1095" d="M0.148785 1.63445C-0.459666 0.600077 0.939773 -0.555988 1.7916 0.295849C2.52175 1.026 2.03499 2.30375 1.12231 2.30375C0.818082 2.30375 0.392166 1.99952 0.148785 1.63445Z" fill="rgb(239,0,42)" fill-rule="nonzero" transform="matrix(0.97632,0.216332,0.216332,-0.97632,183.53,112.19)" />
		<path id="Vector 1096" d="M0.115519 1.63667C-0.371245 0.784831 0.784818 -0.37124 1.63665 0.115527C2.00173 0.35891 2.30595 0.784831 2.30595 1.08906C2.30595 1.88006 0.541436 2.30598 0.115519 1.63667Z" fill="rgb(239,0,42)" fill-rule="nonzero" transform="matrix(0.97632,0.216332,0.216332,-0.97632,109.043,96.934)" />
		<path id="Vector 1097" d="M0.059925 1.48171C-0.122613 0.934104 0.120771 0.386494 0.668385 0.143112C1.82446 -0.282807 2.37207 0.264803 1.94615 1.48171C1.45938 2.63778 0.546693 2.63778 0.059925 1.48171Z" fill="rgb(239,0,42)" fill-rule="nonzero" transform="matrix(0.97632,0.216332,0.216332,-0.97632,203.262,130.989)" />
		<path id="Vector 1098" d="M0.180234 2.06875C-0.367376 1.46029 0.423617 0 1.3363 0C1.82307 0 2.18814 0.54761 2.18814 1.21691C2.18814 2.37297 1.03207 2.85974 0.180234 2.06875Z" fill="rgb(239,0,42)" fill-rule="nonzero" transform="matrix(0.97632,0.216332,0.216332,-0.97632,219.103,135.163)" />
		<path id="Vector 1099" d="M0.920289 4.63183C-0.418313 3.29323 -0.296622 1.58955 1.28536 0.494326C3.84088 -1.2702 6.57893 2.07631 4.44933 4.44929C3.17158 5.84874 2.19805 5.90959 0.920289 4.63183Z" fill="rgb(239,0,42)" fill-rule="nonzero" transform="matrix(0.97632,0.216332,0.216332,-0.97632,380.806,183.59)" />
		<path id="Vector 1100" d="M0.0704868 1.73486C-0.112051 1.36978 0.0704868 0.822169 0.496408 0.51794C1.83502 -0.333902 2.26094 -0.151365 2.26094 1.18724C2.26094 2.46501 0.800638 2.83008 0.0704868 1.73486Z" fill="rgb(239,0,42)" fill-rule="nonzero" transform="matrix(0.97632,0.216332,0.216332,-0.97632,194.821,140.347)" />
		<path id="Vector 1101" d="M0 1.57609C0 0.785098 1.58199 -0.370972 2.00791 0.115794C2.85975 0.906789 2.37298 2.1237 1.21691 2.1237C0.547611 2.1237 0 1.88032 0 1.57609Z" fill="rgb(239,0,42)" fill-rule="nonzero" transform="matrix(0.97632,0.216332,0.216332,-0.97632,350.222,175.116)" />
		<path id="Vector 1102" d="M0.838811 4.74222C-1.47332 2.43008 1.44727 -1.34235 4.12448 0.483022C5.15885 1.15232 5.94984 3.95122 4.97631 3.34277C4.4287 2.97769 4.30701 3.09939 4.67209 3.647C5.58477 5.10729 2.23826 6.14167 0.838811 4.74222Z" fill="rgb(239,0,42)" fill-rule="nonzero" transform="matrix(0.97632,0.216332,0.216332,-0.97632,219.362,152.043)" />
		<path id="Vector 1103" d="M0.388426 2.00791C-0.341723 1.27776 0.0233519 0 0.936038 0C1.4228 0 1.84872 0.365075 1.84872 0.851842C1.84872 1.88622 0.996884 2.55553 0.388426 2.00791Z" fill="rgb(239,0,42)" fill-rule="nonzero" transform="matrix(0.97632,0.216332,0.216332,-0.97632,362.877,188.209)" />
		<path id="Vector 1104" d="M0.945097 4.50257C-0.941116 2.61636 0.154105 0 2.83131 0C4.10907 0 5.44767 1.52114 5.44767 2.98143C5.44767 3.83327 3.68315 5.4761 2.70962 5.4761C2.2837 5.4761 1.43186 5.05018 0.945097 4.50257Z" fill="rgb(239,0,42)" fill-rule="nonzero" transform="matrix(0.97632,0.216332,0.216332,-0.97632,358.972,194.823)" />
		<path id="Vector 1105" d="M0.161326 1.88622C-0.325445 0.973531 0.343866 0 1.4391 0C1.98672 0 2.29095 0.42592 2.16926 1.03438C1.92587 2.25129 0.708944 2.73805 0.161326 1.88622Z" fill="rgb(239,0,42)" fill-rule="nonzero" transform="matrix(0.97632,0.216332,0.216332,-0.97632,353.012,194.125)" />
		<path id="Vector 1106" d="M0.116079 1.78542C-0.370697 0.994431 0.785394 -0.344173 1.51556 0.0817465C2.48911 0.690203 2.36741 2.27219 1.33302 2.27219C0.846241 2.27219 0.298619 2.02881 0.116079 1.78542Z" fill="rgb(239,0,42)" fill-rule="nonzero" transform="matrix(0.97632,0.216332,0.216332,-0.97632,384.804,262.079)" />
	</g>
</svg>
