<svg viewBox="0 0 101.5 46.2358" xmlns="http://www.w3.org/2000/svg" xmlns:xlink="http://www.w3.org/1999/xlink" width="101.500000" height="46.235840" fill="none" customFrame="#000000">
	<defs>
		<g id="pixso_custom_effect_0">
			<effect x="2.000000" y="3.000000" visibility="visible" fill="rgb(0,0,0)" fill-opacity="0.25" effectType="dropShadow" stdDeviation="3" radius="0" />
		</g>
		<filter id="filter_0" width="14.250488" height="22.000000" x="0.000000" y="0.000000" filterUnits="userSpaceOnUse" customEffect="url(#pixso_custom_effect_0)" color-interpolation-filters="sRGB">
			<feFlood flood-opacity="0" result="BackgroundImageFix" />
			<feOffset dx="2.000000" dy="3.000000" in="SourceAlpha" />
			<feGaussianBlur stdDeviation="1" />
			<feColorMatrix type="matrix" values="0 0 0 0 0 0 0 0 0 0 0 0 0 0 0 0 0 0 0.25 0 " />
			<feBlend result="effect_dropShadow_1" in2="BackgroundImageFix" mode="normal" />
			<feBlend result="shape" in="SourceGraphic" in2="effect_dropShadow_1" mode="normal" />
		</filter>
		<g id="pixso_custom_effect_1">
			<effect x="2.000000" y="3.000000" visibility="visible" fill="rgb(0,0,0)" fill-opacity="0.25" effectType="dropShadow" stdDeviation="3" radius="0" />
		</g>
		<filter id="filter_1" width="40.148926" height="22.153809" x="22.000000" y="0.000000" filterUnits="userSpaceOnUse" customEffect="url(#pixso_custom_effect_1)" color-interpolation-filters="sRGB">
			<feFlood flood-opacity="0" result="BackgroundImageFix" />
			<feOffset dx="2.000000" dy="3.000000" in="SourceAlpha" />
			<feGaussianBlur stdDeviation="1" />
			<feColorMatrix type="matrix" values="0 0 0 0 0 0 0 0 0 0 0 0 0 0 0 0 0 0 0.25 0 " />
			<feBlend result="effect_dropShadow_1" in2="BackgroundImageFix" mode="normal" />
			<feBlend result="shape" in="SourceGraphic" in2="effect_dropShadow_1" mode="normal" />
		</filter>
		<g id="pixso_custom_effect_2">
			<effect x="2.000000" y="3.000000" visibility="visible" fill="rgb(0,0,0)" fill-opacity="0.25" effectType="dropShadow" stdDeviation="3" radius="0" />
		</g>
		<filter id="filter_2" width="37.432503" height="27.735840" x="0.235352" y="18.500000" filterUnits="userSpaceOnUse" customEffect="url(#pixso_custom_effect_2)" color-interpolation-filters="sRGB">
			<feFlood flood-opacity="0" result="BackgroundImageFix" />
			<feOffset dx="2.000000" dy="3.000000" in="SourceAlpha" />
			<feGaussianBlur stdDeviation="1" />
			<feColorMatrix type="matrix" values="0 0 0 0 0 0 0 0 0 0 0 0 0 0 0 0 0 0 0.25 0 " />
			<feBlend result="effect_dropShadow_1" in2="BackgroundImageFix" mode="normal" />
			<feBlend result="shape" in="SourceGraphic" in2="effect_dropShadow_1" mode="normal" />
		</filter>
		<g id="pixso_custom_effect_3">
			<effect x="2.000000" y="3.000000" visibility="visible" fill="rgb(0,0,0)" fill-opacity="0.25" effectType="dropShadow" stdDeviation="3" radius="0" />
		</g>
		<filter id="filter_3" width="44.287109" height="27.500000" x="57.212891" y="18.500000" filterUnits="userSpaceOnUse" customEffect="url(#pixso_custom_effect_3)" color-interpolation-filters="sRGB">
			<feFlood flood-opacity="0" result="BackgroundImageFix" />
			<feOffset dx="2.000000" dy="3.000000" in="SourceAlpha" />
			<feGaussianBlur stdDeviation="1" />
			<feColorMatrix type="matrix" values="0 0 0 0 0 0 0 0 0 0 0 0 0 0 0 0 0 0 0.25 0 " />
			<feBlend result="effect_dropShadow_1" in2="BackgroundImageFix" mode="normal" />
			<feBlend result="shape" in="SourceGraphic" in2="effect_dropShadow_1" mode="normal" />
		</filter>
		<clipPath id="clipPath_0">
			<rect width="12.000000" height="12.000000" x="10.500000" y="4.500000" fill="rgb(255,255,255)" />
		</clipPath>
		<clipPath id="clipPath_1">
			<rect width="22.000000" height="22.000000" x="31.500000" y="20.500000" fill="rgb(255,255,255)" />
		</clipPath>
	</defs>
	<g id="logo 4">
		<g filter="url(#filter_0)">
			<path id="Ч " d="M9.25049 16L7.5 16L7.5 11.708C6.89941 11.918 6.34033 12.0828 5.82275 12.2024C5.30518 12.322 4.75586 12.3818 4.1748 12.3818C3.16895 12.3818 2.39014 12.1438 1.83838 11.6677C1.28662 11.1917 1.01074 10.5117 1.01074 9.62793L1.01074 5.29199L2.76855 5.29199L2.76855 9.21777C2.76855 9.76953 2.90649 10.1858 3.18237 10.4666C3.45825 10.7473 3.91846 10.8877 4.56299 10.8877C5.0708 10.8877 5.54932 10.8376 5.99854 10.7375C6.44775 10.6375 6.94824 10.4922 7.5 10.3018L7.5 5.29199L9.25049 5.29199L9.25049 16Z" fill="rgb(76,137,221)" fill-rule="nonzero" />
		</g>
		<g filter="url(#filter_1)">
			<path id="" d="M28.0278 16L24.9443 7.05713L24.8784 7.05713C24.8931 7.25732 24.9102 7.53076 24.9297 7.87744C24.9492 8.22412 24.9663 8.59521 24.981 8.99072C24.9956 9.38623 25.0029 9.76465 25.0029 10.126L25.0029 16L23.4062 16L23.4062 5.29199L25.8745 5.29199L28.8408 13.8394L28.8848 13.8394L31.9536 5.29199L34.4146 5.29199L34.4146 16L32.7373 16L32.7373 10.0381C32.7373 9.71094 32.7434 9.35693 32.7556 8.97607C32.7678 8.59521 32.7825 8.23389 32.7996 7.89209C32.8167 7.55029 32.8301 7.27686 32.8398 7.07178L32.7812 7.07178L29.5806 16L28.0278 16ZM45.2764 16L43.5186 16L43.5186 6.78613L40.4717 6.78613C40.4082 7.28906 40.3398 7.82495 40.2666 8.3938C40.1934 8.96265 40.1177 9.53271 40.0396 10.104C39.9614 10.6753 39.8821 11.2173 39.8015 11.73C39.7209 12.2427 39.6392 12.6943 39.5562 13.085C39.4292 13.7393 39.2644 14.2947 39.0618 14.7512C38.8591 15.2078 38.5869 15.5557 38.2451 15.7949C37.9033 16.0342 37.4565 16.1538 36.9048 16.1538C36.7192 16.1538 36.5386 16.1379 36.3628 16.1062C36.187 16.0745 36.0283 16.0342 35.8867 15.9854L35.8867 14.5352C36.0039 14.5791 36.1296 14.6169 36.2639 14.6487C36.3982 14.6804 36.541 14.6963 36.6924 14.6963C36.9463 14.6963 37.1501 14.6023 37.304 14.4143C37.4578 14.2263 37.5859 13.9578 37.6885 13.6086C37.791 13.2595 37.8887 12.8457 37.9814 12.3672C38.0352 12.0791 38.1011 11.697 38.1792 11.2209C38.2573 10.7449 38.3428 10.1943 38.4355 9.56934C38.5283 8.94434 38.6248 8.26929 38.7249 7.54419C38.825 6.81909 38.9214 6.06836 39.0142 5.29199L45.2764 5.29199L45.2764 16ZM48.0962 5.29199L49.7002 5.29199L49.7002 10.9683C49.7002 11.2124 49.6978 11.481 49.6929 11.7739C49.688 12.0669 49.6794 12.3525 49.6672 12.6309C49.655 12.9092 49.644 13.157 49.6343 13.3743C49.6245 13.5916 49.6147 13.749 49.605 13.8467L49.6562 13.8467L55.1055 5.29199L57.1489 5.29199L57.1489 16L55.5596 16L55.5596 10.3677C55.5596 10.104 55.5645 9.81836 55.5742 9.51074C55.584 9.20312 55.5962 8.90527 55.6108 8.61719C55.6255 8.3291 55.6401 8.0752 55.6548 7.85547C55.6694 7.63574 55.6792 7.47949 55.6841 7.38672L55.6182 7.38672L50.1543 16L48.0962 16L48.0962 5.29199Z" fill="rgb(76,137,221)" fill-rule="nonzero" />
		</g>
		<path id="Line 2" d="M65.5 9L85.5 9L85.5 12L65.5 12L65.5 9ZM65.52 12L64 12L64 9L65.52 9L65.52 12ZM85.48 9.02L85.5 9C86.34 9 87 9.66 87 10.5C87 11.34 86.34 12 85.5 12L85.48 11.98L85.48 9.02Z" fill="rgb(76,137,221)" fill-rule="nonzero" />
		<g filter="url(#filter_2)">
			<path id="" d="M5.67725 33.9521L5.67725 39.5L1.73535 39.5L1.73535 23.1484L8.26025 23.1484C9.51058 23.1484 10.6168 23.3787 11.5789 23.8391C12.5409 24.2996 13.2859 24.9547 13.8137 25.8044C14.3416 26.6542 14.6055 27.6182 14.6055 28.6963C14.6055 30.291 14.0346 31.5657 12.8928 32.5203C11.7511 33.4749 10.1844 33.9521 8.19287 33.9521L5.67725 33.9521ZM5.67725 30.9087L8.26025 30.9087C9.02393 30.9087 9.60604 30.7178 10.0066 30.3359C10.4071 29.9541 10.6074 29.415 10.6074 28.7188C10.6074 27.9551 10.4015 27.3449 9.98975 26.8882C9.57796 26.4315 9.01644 26.1994 8.30518 26.1919L5.67725 26.1919L5.67725 30.9087ZM25.0508 30.2461L25.0508 30.2573L27.7573 23.1484L31.9126 23.1484L26.4097 36.1196C25.8182 37.4298 25.1537 38.3526 24.4163 38.8879C23.6788 39.4233 22.8159 39.7059 21.8276 39.7358L21.0303 39.7358L20.4238 39.7134L20.3564 36.6587C20.4463 36.6886 20.7083 36.7036 21.1426 36.7036C21.7415 36.7036 22.1926 36.6007 22.4958 36.3948C22.7991 36.1889 23.0443 35.7902 23.2314 35.1987L23.4224 34.6597L17.5151 23.1484L21.7041 23.1484L25.0508 30.2461Z" fill="rgb(6,72,163)" fill-rule="nonzero" />
			<path id="" d="M6.17725 33.9521L8.19287 33.9521Q11.1802 33.9521 12.8928 32.5203Q13.5851 31.9415 13.9975 31.2058Q14.6055 30.1215 14.6055 28.6963Q14.6055 27.4925 14.1668 26.4786Q14.0161 26.1303 13.8137 25.8044C13.2859 24.9547 12.5409 24.2996 11.5789 23.8391Q10.1357 23.1484 8.26025 23.1484L1.73535 23.1484L1.73535 39.5L5.67725 39.5L5.67725 33.9521L6.17725 33.9521ZM6.17725 34.4521L6.17725 40L1.23535 40L1.23535 22.6484L8.26025 22.6484Q10.2492 22.6484 11.7947 23.3881Q12.8723 23.9039 13.6194 24.7216Q13.9641 25.099 14.2385 25.5406Q14.4773 25.9252 14.6504 26.3374Q15.1055 27.4213 15.1055 28.6963Q15.1055 30.2379 14.4534 31.4196Q13.9947 32.2507 13.2135 32.9039Q11.3617 34.4521 8.19287 34.4521L6.17725 34.4521ZM25.3001 29.6025L25.0508 30.2573L25.0508 30.2461L24.7571 29.6233L21.7041 23.1484L17.5151 23.1484L17.7717 23.6484L23.4224 34.6597L23.2314 35.1987C23.0443 35.7902 22.7991 36.1889 22.4958 36.3948C22.1926 36.6007 21.7415 36.7036 21.1426 36.7036C21.0375 36.7036 20.9424 36.7027 20.8575 36.701C20.5916 36.6955 20.4245 36.6814 20.3564 36.6587L20.3677 37.1684L20.4238 39.7134L21.0303 39.7358L21.8276 39.7358C22.8159 39.7059 23.6788 39.4233 24.4163 38.8879C25.1537 38.3526 25.8182 37.4298 26.4097 36.1196L31.7005 23.6484L31.9126 23.1484L27.7573 23.1484L25.3001 29.6025ZM25.0041 28.9747L22.0211 22.6484L16.6966 22.6484L22.879 34.6961L22.7573 35.0398L22.7547 35.0479Q22.5263 35.7697 22.215 35.9811Q21.8873 36.2036 21.1426 36.2036Q20.8312 36.2036 20.6489 36.1932Q20.5681 36.1886 20.5194 36.1824Q20.508 36.1809 20.5005 36.1797L19.8409 35.9598L19.9343 40.1956L21.021 40.2358L21.8352 40.2358L21.8428 40.2356Q23.0034 40.2004 23.96 39.7408Q24.3521 39.5523 24.71 39.2926Q25.9236 38.4116 26.8654 36.3254L26.8677 36.3202L32.6679 22.6484L27.4127 22.6484L25.0041 28.9747ZM8.26025 30.4087L6.17725 30.4087L6.17725 26.6919L8.29991 26.6919Q8.95806 26.6988 9.38905 27.0152Q9.51314 27.1063 9.6184 27.223Q9.63784 27.2446 9.6565 27.2668Q10.1074 27.8033 10.1074 28.7188Q10.1074 29.4884 9.72434 29.9098Q9.69416 29.943 9.6616 29.974Q9.20563 30.4087 8.26025 30.4087ZM6.17725 26.1919L8.30518 26.1919C9.01644 26.1994 9.57796 26.4315 9.98975 26.8882C10.4015 27.3449 10.6074 27.9551 10.6074 28.7188Q10.6074 29.6006 10.1791 30.1462Q10.1001 30.2468 10.0066 30.3359L10.0051 30.3374Q9.40432 30.9087 8.26025 30.9087L5.67725 30.9087L5.67725 26.1919L6.17725 26.1919Z" fill="rgb(0,28,66)" fill-rule="evenodd" />
		</g>
		<g filter="url(#filter_3)">
			<path id="" d="M64.519 33.0312L62.6548 33.0312L62.6548 39.5L58.7129 39.5L58.7129 23.1484L62.6548 23.1484L62.6548 29.4712L64.1709 29.4712L67.3154 23.1484L72.0884 23.1484L67.5962 30.6953L72.6499 39.5L67.9893 39.5L64.519 33.0312ZM84.9033 36.4453L79.5015 36.4453L78.5581 39.5L74.3467 39.5L80.3438 23.1484L84.0498 23.1484L90.0918 39.5L85.8579 39.5L84.9033 36.4453ZM80.4448 33.4019L83.96 33.4019L82.1968 27.7305L80.4448 33.4019Z" fill="rgb(6,72,163)" fill-rule="nonzero" />
			<path id="" d="M64.519 33.0312L62.6548 33.0312L62.6548 39.5L58.7129 39.5L58.7129 23.1484L62.6548 23.1484L62.6548 29.4712L64.1709 29.4712L67.3154 23.1484L72.0884 23.1484L71.7908 23.6484L67.5962 30.6953L72.3629 39L72.6499 39.5L67.9893 39.5L64.519 33.0312ZM68.1753 30.6999L72.9679 22.6484L67.0057 22.6484L63.8611 28.9712L63.1548 28.9712L63.1548 22.6484L58.2129 22.6484L58.2129 40L63.1548 40L63.1548 33.5312L64.2199 33.5312L67.6901 40L73.5134 40L68.1753 30.6999ZM84.9033 36.4453L79.5015 36.4453L78.5581 39.5L74.3467 39.5L74.5301 39L80.3438 23.1484L84.0498 23.1484L89.907 39L90.0918 39.5L85.8579 39.5L84.9033 36.4453ZM79.8704 36.9453L78.927 40L73.6307 40L79.9946 22.6484L84.3981 22.6484L90.8096 40L85.4903 40L84.5357 36.9453L79.8704 36.9453ZM80.9681 33.4019L80.4448 33.4019L80.5993 32.9019L81.9358 28.5753L82.1968 27.7305L82.4593 28.5748L83.8045 32.9019L83.96 33.4019L80.9681 33.4019ZM81.1226 32.9019L83.2809 32.9019L82.1983 29.4196L81.1226 32.9019Z" fill="rgb(0,28,66)" fill-rule="evenodd" />
		</g>
		<g id="owl-svgrepo-com (1) 2" clip-path="url(#clipPath_0)" customFrame="url(#clipPath_0)">
			<rect id="owl-svgrepo-com (1) 2" width="12.000000" height="12.000000" x="10.500000" y="4.500000" />
			<g id="Group 4">
				<g id="Group 5">
					<circle id="Oval 3" cx="15.2233334" cy="9.40579891" r="0.453070164" fill="rgb(0,0,0)" />
				</g>
			</g>
			<g id="Group 6">
				<g id="Group 7">
					<ellipse id="Oval 4" rx="0.453070" ry="0.453070" cx="17.7947788" cy="9.40579891" fill="rgb(0,0,0)" />
				</g>
			</g>
			<g id="Group 8">
				<g id="Group 9">
					<path id="Vector 5" d="M20.0939 5.63704C19.2245 6.13909 17.9247 6.42705 16.5276 6.42705C15.1091 6.42705 13.7657 6.12566 12.9341 5.62089L12.6551 5.45151L12.6551 6.80202L13.0225 6.80202L13.0225 6.0892C13.9158 6.53971 15.1706 6.79441 16.5276 6.79441C17.8482 6.79441 19.0929 6.54398 20.0021 6.10124L20.0021 6.80202L20.3694 6.80202L20.3694 5.47792L20.0939 5.63704Z" fill="rgb(0,0,0)" fill-rule="nonzero" />
				</g>
			</g>
			<g id="Group 10">
				<g id="Group 11">
					<path id="Vector 6" d="M14.0307 14.0305L13.8263 14.3358C13.9909 14.4459 14.1676 14.5381 14.3518 14.6097L14.4849 14.2673C14.3258 14.2054 14.173 14.1257 14.0307 14.0305Z" fill="rgb(0,0,0)" fill-rule="nonzero" />
				</g>
			</g>
			<g id="Group 12">
				<g id="Group 13">
					<path id="Vector 7" d="M14.0307 13.002L13.8264 13.3072C13.9909 13.4174 14.1676 13.5095 14.3518 13.5811L14.4849 13.2387C14.3258 13.1769 14.173 13.0972 14.0307 13.002Z" fill="rgb(0,0,0)" fill-rule="nonzero" />
				</g>
			</g>
			<g id="Group 14">
				<g id="Group 15">
					<path id="Vector 8" d="M14.0307 11.9734L13.8264 12.2787C13.9909 12.3888 14.1677 12.481 14.3517 12.5526L14.4849 12.2102C14.3258 12.1483 14.173 12.0686 14.0307 11.9734Z" fill="rgb(0,0,0)" fill-rule="nonzero" />
				</g>
			</g>
			<g id="Group 16">
				<g id="Group 17">
					<rect id="Rectangle 1" width="0.612235" height="0.367335" x="16.646927" y="11.944901" fill="rgb(0,0,0)" />
				</g>
			</g>
			<g id="Group 18">
				<g id="Group 19">
					<path id="Vector 9" d="M12.4682 6.56664L12.2052 6.31012C11.1056 7.43711 10.5 8.92509 10.5 10.5C10.5 11.6089 10.8049 12.6922 11.3819 13.6328L11.695 13.4407C11.1536 12.558 10.8673 11.5411 10.8673 10.5C10.8673 9.02151 11.4359 7.62463 12.4682 6.56664Z" fill="rgb(0,0,0)" fill-rule="nonzero" />
				</g>
			</g>
			<g id="Group 20">
				<g id="Group 21">
					<path id="Vector 10" d="M12.0203 13.9151L11.7284 14.1381C11.8694 14.3228 12.0228 14.5012 12.1844 14.6684L12.4486 14.4132C12.2969 14.2561 12.1528 14.0885 12.0203 13.9151Z" fill="rgb(0,0,0)" fill-rule="nonzero" />
				</g>
			</g>
			<g id="Group 22">
				<g id="Group 23">
					<path id="Vector 11" d="M20.8156 6.33159L20.5514 6.58682C21.5711 7.64228 22.1327 9.03201 22.1327 10.5C22.1327 12.0045 21.5468 13.419 20.4829 14.4829C19.419 15.5467 18.0045 16.1327 16.5 16.1327C15.4951 16.1327 14.529 15.8716 13.6737 15.3735L14.7558 15.3735L14.7635 15.3933C14.7798 15.387 14.7957 15.3801 14.8118 15.3735L15.1201 15.3735C18.0146 15.3735 20.3694 13.0263 20.3694 10.1413L20.3694 7.31632L20.002 7.31632L20.002 7.60673C19.6917 7.44515 19.3459 7.36092 18.9854 7.36092C17.9472 7.36092 17.1576 7.93771 16.7021 9.02892C16.6268 9.20915 16.5668 9.3888 16.5188 9.55926C16.4719 9.38894 16.4127 9.20955 16.3383 9.0295C15.887 7.9379 15.0941 7.36089 14.0452 7.36089C13.6823 7.36089 13.3343 7.44637 13.0224 7.61003L13.0224 7.34078L12.6551 7.34078L12.6551 15.3734L12.9998 15.3734C14.024 16.1105 15.2331 16.5 16.5 16.5C18.1027 16.5 19.6094 15.8759 20.7426 14.7426C21.8759 13.6094 22.5 12.1027 22.5 10.5C22.5 8.93627 21.9018 7.45589 20.8156 6.33159ZM17.7949 8.62216C18.227 8.62216 18.5786 8.97372 18.5786 9.40584C18.5786 9.83796 18.227 10.1895 17.7949 10.1895C17.3628 10.1895 17.0112 9.83796 17.0112 9.40584C17.0112 8.97375 17.3628 8.62216 17.7949 8.62216ZM16.2356 9.95341C16.3201 10.3575 16.3316 10.6561 16.3317 10.6608L16.6988 10.6623C16.699 10.6577 16.712 10.3695 16.7952 9.9753C16.9937 10.3223 17.3673 10.5569 17.7949 10.5569C18.4296 10.5569 18.9459 10.0405 18.9459 9.40584C18.9459 8.77115 18.4296 8.25482 17.7949 8.25482C17.7366 8.25482 17.6793 8.25925 17.6233 8.26767C17.9866 7.90933 18.4419 7.7283 18.9854 7.7283C19.3538 7.7283 19.7032 7.83367 20.002 8.03343L20.002 10.1412C20.002 10.7782 19.8784 11.3868 19.654 11.9449L17.5041 11.9449L17.5041 12.3122L19.488 12.3122C19.4464 12.3952 19.4026 12.4769 19.3564 12.5571L16.9653 12.5571L16.9653 12.9244L19.1218 12.9244C19.0631 13.008 19.0018 13.0897 18.9381 13.1693L17.4551 13.1693L17.4551 13.5367L18.6126 13.5367C17.8 14.3664 16.6932 14.9086 15.4621 14.9939C15.6709 14.8291 15.8557 14.6333 16.0105 14.411C16.3287 13.9542 16.4969 13.4175 16.4969 12.8588C16.4969 11.8901 15.9875 11.0383 15.2226 10.5568C15.2229 10.5568 15.2232 10.5568 15.2235 10.5568C15.66 10.5568 16.0406 10.3125 16.2356 9.95341ZM16.0072 9.40584C16.0072 9.83796 15.6556 10.1895 15.2235 10.1895C14.7914 10.1895 14.4398 9.83796 14.4398 9.40584C14.4398 8.97372 14.7914 8.62216 15.2235 8.62216C15.6556 8.62216 16.0072 8.97375 16.0072 9.40584ZM13.0224 8.03746C13.3226 7.83503 13.6743 7.72828 14.0452 7.72828C14.5975 7.72828 15.0581 7.91092 15.4231 8.2725C15.3582 8.26108 15.2916 8.25482 15.2235 8.25482C14.5888 8.25482 14.0724 8.77118 14.0724 9.40584C14.0724 9.72018 14.1992 10.0054 14.4042 10.2133C14.2032 10.1658 13.9938 10.1405 13.7786 10.1405C13.52 10.1405 13.2668 10.1765 13.0224 10.2472L13.0224 8.03746L13.0224 8.03746ZM13.0225 13.5032C13.1679 13.7383 13.35 13.9522 13.5649 14.137L13.8045 13.8585C13.3896 13.5017 13.1165 13.02 13.0225 12.4882L13.0225 12.4738C13.1678 12.709 13.3496 12.923 13.5639 13.1075L13.8035 12.8291C13.3906 12.4736 13.1168 11.9916 13.0225 11.4609L13.0225 11.4427C13.1685 11.6798 13.3505 11.8953 13.5638 12.0789L13.8034 11.8005C13.4428 11.4899 13.1843 11.0747 13.0636 10.6187C13.2937 10.5452 13.5333 10.5079 13.7786 10.5079C15.075 10.5079 16.1296 11.5626 16.1296 12.859C16.1296 13.3421 15.9842 13.8062 15.7091 14.2011C15.4623 14.5555 15.1277 14.8318 14.7368 15.0062L13.0225 15.0062L13.0225 13.5032Z" fill="rgb(0,0,0)" fill-rule="nonzero" />
				</g>
			</g>
			<g id="Group 24">
				<g id="Group 25">
					<path id="Vector 12" d="M16.5 4.5C15.3979 4.5 14.3204 4.80145 13.3838 5.37169L13.5749 5.68547C14.4538 5.15025 15.4653 4.86734 16.5 4.86734C17.5506 4.86734 18.5755 5.15845 19.4637 5.70914L19.6573 5.39695C18.7108 4.81017 17.6191 4.5 16.5 4.5Z" fill="rgb(0,0,0)" fill-rule="nonzero" />
				</g>
			</g>
			<g id="Group 26">
				<g id="Group 27">
					<path id="Vector 13" d="M21.3256 10.1693L20.9591 10.194C20.9659 10.2952 20.9694 10.3981 20.9694 10.5C20.9694 11.5192 20.6353 12.479 20.0033 13.2757L20.2911 13.504C20.9752 12.6417 21.3368 11.603 21.3368 10.5C21.3367 10.3899 21.333 10.2786 21.3256 10.1693Z" fill="rgb(0,0,0)" fill-rule="nonzero" />
				</g>
			</g>
			<g id="Group 28">
				<g id="Group 29">
					<path id="Vector 14" d="M21.1876 9.30359L20.8316 9.39417C20.8689 9.54078 20.899 9.69113 20.9212 9.84106L21.2846 9.78741C21.2606 9.62508 21.228 9.46233 21.1876 9.30359Z" fill="rgb(0,0,0)" fill-rule="nonzero" />
				</g>
			</g>
		</g>
		<g id="free-icon-meat-grinder-294678_1 1" clip-path="url(#clipPath_1)" customFrame="url(#clipPath_1)">
			<rect id="free-icon-meat-grinder-294678_1 1" width="22.000000" height="22.000000" x="31.500000" y="20.500000" />
			<g id="Group 39">
				<path id="Vector 25" d="M1.65 18.7399C1.49961 18.6755 1.375 18.5208 1.375 18.4048C1.375 18.3317 1.31914 18.3274 0.6875 18.3274L0 18.3274L0 17.1243C0 16.3552 0.0171875 15.8868 0.0472656 15.8223C0.141797 15.6204 0.283594 15.5774 0.919531 15.5774C1.48672 15.5774 1.50391 15.5731 1.52539 15.4829C1.53828 15.427 1.60273 15.0317 1.67578 14.602L1.80469 13.8243L1.80469 11.9509L1.80469 10.0774L1.36641 10.0774L0.923828 10.0774L0.850781 10.2493C0.717578 10.5716 0.305078 10.6274 0.0859375 10.3481C0 10.2407 0 10.1806 0 7.77001L0 5.2993L0.124609 5.17469C0.348047 4.95126 0.713281 5.0243 0.846484 5.31219L0.923828 5.47548L2.93477 5.47977C4.28828 5.47977 4.94141 5.46688 4.94141 5.4368C4.94141 5.41102 4.74375 4.64188 4.50742 3.72665C4.03477 1.92626 4.00899 1.7329 4.14648 1.30751C4.23242 1.0454 4.52031 0.731725 4.78672 0.607116C4.87695 0.564147 5.07461 0.508287 5.225 0.482506C5.43555 0.448131 5.5 0.418053 5.5 0.362194C5.5 0.246178 5.66328 0.074303 5.81797 0.0227405C6.04141 -0.0503064 6.25625 0.0571155 6.35078 0.280553L6.42383 0.452428L10.7766 0.452428C14.9918 0.452428 15.125 0.448131 15.125 0.370787C15.125 0.250475 15.284 0.0785998 15.443 0.0227405C15.7137 -0.0674939 16.0273 0.164537 16.0273 0.452428C16.0273 0.499694 16.0574 0.538365 16.0918 0.538365C16.3496 0.538365 16.9641 1.03251 17.166 1.40204C17.4066 1.84462 17.4023 1.75868 17.4023 5.7161C17.4023 8.02352 17.3852 9.43719 17.3551 9.55751C17.2348 10.0903 16.8523 10.5673 16.341 10.8165L16.0488 10.9583L11.9238 10.9583C8.03945 10.9583 7.78594 10.954 7.5625 10.8809C7.25742 10.7778 6.77188 10.477 6.55274 10.2536L6.38516 10.0774L5.94258 10.0774L5.5 10.0774L5.5 11.9509L5.5 13.8243L5.62891 14.602C5.70195 15.0317 5.76641 15.427 5.7793 15.4829L5.80078 15.5774L9.13516 15.5774C12.7488 15.5774 12.6414 15.5688 12.7531 15.8138C12.7875 15.8911 12.8047 16.2864 12.8047 17.1243L12.8047 18.3274L9.37578 18.3274L5.94688 18.3274L5.9082 18.4649C5.88242 18.538 5.80938 18.6411 5.74492 18.6884C5.62461 18.7743 5.57305 18.7786 3.70391 18.7872C2.15273 18.7958 1.75742 18.7872 1.65 18.7399ZM11.9023 16.9524L11.9023 16.4798L6.40234 16.4798L0.902344 16.4798L0.902344 16.9524L0.902344 17.4251L6.40234 17.4251L11.9023 17.4251L11.9023 16.9524ZM4.85547 15.5473C4.85547 15.5259 4.78672 15.1177 4.70508 14.6321L4.55469 13.7513L4.55469 11.9165L4.55469 10.0774L3.65234 10.0774L2.75 10.0774L2.75 11.9165L2.75 13.7513L2.59961 14.6321C2.51797 15.1177 2.44922 15.5259 2.44922 15.5473C2.44922 15.5645 2.99063 15.5774 3.65234 15.5774C4.31406 15.5774 4.85547 15.5645 4.85547 15.5473ZM11.9023 9.1536L11.9023 8.22977L14.2012 8.22977L16.5 8.22977L16.5 5.23915C16.5 3.09501 16.4871 2.19696 16.4484 2.05087C16.4141 1.90907 16.341 1.79305 16.1992 1.65555C16.0617 1.51376 15.9457 1.44071 15.8039 1.40633C15.5547 1.34188 5.57734 1.33329 5.30664 1.39774C5.09609 1.44501 4.98438 1.57391 4.98438 1.77587C4.98438 1.92196 6.78047 8.89149 6.88359 9.1493C7.02109 9.49305 7.47656 9.89266 7.87617 10.013C8.01367 10.0602 8.50781 10.0731 9.98164 10.0731L11.9023 10.0774L11.9023 9.1536ZM13.5781 10.0473C13.4492 10.0001 13.3203 9.8454 13.2945 9.6993C13.2602 9.52313 13.3633 9.2954 13.5051 9.22665C13.5781 9.19227 13.5094 9.17938 13.2043 9.17938L12.8047 9.17508L12.8047 9.62626L12.8047 10.0774L13.2258 10.0731C13.4535 10.0731 13.6125 10.0602 13.5781 10.0473ZM14.8371 9.99149C14.5922 9.8454 14.575 9.47157 14.8027 9.27391L14.9145 9.17508L14.4203 9.17508L13.9305 9.17508L14.0551 9.29969C14.257 9.50594 14.2098 9.87977 13.9605 10.0173C13.8703 10.0688 13.9305 10.0731 14.416 10.0774L14.9746 10.0774L14.8371 9.99149ZM15.9758 9.96571C16.1992 9.85399 16.457 9.54461 16.457 9.38563C16.457 9.34266 16.4699 9.28251 16.4828 9.24383C16.5043 9.18368 16.4355 9.17508 15.877 9.17508L15.2453 9.17508L15.3785 9.2868C15.6191 9.48876 15.5848 9.85829 15.3055 10.0087C15.1938 10.0731 15.198 10.0731 15.473 10.0774C15.6879 10.0774 15.8039 10.0516 15.9758 9.96571ZM1.80469 7.80008L1.80469 6.42508L1.43516 6.42508L1.06133 6.42508L1.17305 6.51102C1.33633 6.63993 1.39648 6.85477 1.31484 7.04383C1.28047 7.12977 1.20313 7.22001 1.14297 7.25008C1.00117 7.31024 1.00547 7.33173 1.15586 7.41766C1.43086 7.57665 1.40508 8.00204 1.10859 8.1868C1.02695 8.23407 0.996875 8.27274 1.03555 8.27274C1.13867 8.27274 1.32344 8.47469 1.35352 8.61649C1.38789 8.77547 1.28047 9.00321 1.12578 9.09774C1.00977 9.17079 1.01406 9.17079 1.40938 9.17508L1.80469 9.17508L1.80469 7.80008ZM5.92969 9.16649C5.92539 9.1579 5.76641 8.54344 5.56875 7.80008L5.21641 6.44657L3.9832 6.43368L2.75 6.42508L2.75 7.80008L2.75 9.17508L4.33984 9.17508C5.21641 9.17508 5.92969 9.17079 5.92969 9.16649Z" fill="rgb(6,72,163)" fill-rule="nonzero" transform="matrix(1,0,0,-1,36.0977,40.8899)" />
				<path id="Vector 25" d="M1.375 18.4048C1.375 18.3317 1.31914 18.3274 0.6875 18.3274L0 18.3274L0 17.1243C0 16.3552 0.0171875 15.8868 0.0472656 15.8223C0.141797 15.6204 0.283594 15.5774 0.919531 15.5774C1.48672 15.5774 1.50391 15.5731 1.52539 15.4829C1.53828 15.427 1.60273 15.0317 1.67578 14.602L1.80469 13.8243L1.80469 11.9509L1.80469 10.0774L1.36641 10.0774L0.923828 10.0774L0.850781 10.2493C0.717578 10.5716 0.305078 10.6274 0.0859375 10.3481C0 10.2407 0 10.1806 0 7.77001L0 5.2993L0.124609 5.17469C0.348047 4.95126 0.713281 5.0243 0.846484 5.31219L0.923828 5.47548L2.93477 5.47977C4.28828 5.47977 4.94141 5.46688 4.94141 5.4368C4.94141 5.41102 4.74375 4.64188 4.50742 3.72665C4.03477 1.92626 4.00899 1.7329 4.14648 1.30751C4.23242 1.0454 4.52031 0.731725 4.78672 0.607116C4.87695 0.564147 5.07461 0.508287 5.225 0.482506C5.43555 0.448131 5.5 0.418053 5.5 0.362194C5.5 0.246178 5.66328 0.074303 5.81797 0.0227405C6.04141 -0.0503064 6.25625 0.0571155 6.35078 0.280553L6.42383 0.452428L10.7766 0.452428C14.9918 0.452428 15.125 0.448131 15.125 0.370787C15.125 0.250475 15.284 0.0785998 15.443 0.0227405C15.7137 -0.0674939 16.0273 0.164537 16.0273 0.452428C16.0273 0.499694 16.0574 0.538365 16.0918 0.538365C16.3496 0.538365 16.9641 1.03251 17.166 1.40204C17.4066 1.84462 17.4023 1.75868 17.4023 5.7161C17.4023 8.02352 17.3852 9.43719 17.3551 9.55751C17.2348 10.0903 16.8523 10.5673 16.341 10.8165L16.0488 10.9583L11.9238 10.9583C8.03945 10.9583 7.78594 10.954 7.5625 10.8809C7.25742 10.7778 6.77188 10.477 6.55274 10.2536L6.38516 10.0774L5.94258 10.0774L5.5 10.0774L5.5 11.9509L5.5 13.8243L5.62891 14.602C5.70195 15.0317 5.76641 15.427 5.7793 15.4829L5.80078 15.5774L9.13516 15.5774C12.7488 15.5774 12.6414 15.5688 12.7531 15.8138C12.7875 15.8911 12.8047 16.2864 12.8047 17.1243L12.8047 18.3274L9.37578 18.3274L5.94688 18.3274L5.9082 18.4649C5.88242 18.538 5.80938 18.6411 5.74492 18.6884C5.62461 18.7743 5.57305 18.7786 3.70391 18.7872C2.15273 18.7958 1.75742 18.7872 1.65 18.7399C1.49961 18.6755 1.375 18.5208 1.375 18.4048ZM11.9023 16.4798L6.40234 16.4798L0.902344 16.4798L0.902344 16.9524L0.902344 17.4251L6.40234 17.4251L11.9023 17.4251L11.9023 16.9524L11.9023 16.4798ZM4.70508 14.6321L4.55469 13.7513L4.55469 11.9165L4.55469 10.0774L3.65234 10.0774L2.75 10.0774L2.75 11.9165L2.75 13.7513L2.59961 14.6321C2.51797 15.1177 2.44922 15.5259 2.44922 15.5473C2.44922 15.5645 2.99063 15.5774 3.65234 15.5774C4.31406 15.5774 4.85547 15.5645 4.85547 15.5473C4.85547 15.5259 4.78672 15.1177 4.70508 14.6321ZM11.9023 8.22977L14.2012 8.22977L16.5 8.22977L16.5 5.23915C16.5 3.09501 16.4871 2.19696 16.4484 2.05087C16.4141 1.90907 16.341 1.79305 16.1992 1.65555C16.0617 1.51376 15.9457 1.44071 15.8039 1.40633C15.5547 1.34188 5.57734 1.33329 5.30664 1.39774C5.09609 1.44501 4.98438 1.57391 4.98438 1.77587C4.98438 1.92196 6.78047 8.89149 6.88359 9.1493C7.02109 9.49305 7.47656 9.89266 7.87617 10.013C8.01367 10.0602 8.50781 10.0731 9.98164 10.0731L11.9023 10.0774L11.9023 9.1536L11.9023 8.22977ZM13.2945 9.6993C13.2602 9.52313 13.3633 9.2954 13.5051 9.22665C13.5781 9.19227 13.5094 9.17938 13.2043 9.17938L12.8047 9.17508L12.8047 9.62626L12.8047 10.0774L13.2258 10.0731C13.4535 10.0731 13.6125 10.0602 13.5781 10.0473C13.4492 10.0001 13.3203 9.8454 13.2945 9.6993ZM14.8027 9.27391L14.9145 9.17508L14.4203 9.17508L13.9305 9.17508L14.0551 9.29969C14.257 9.50594 14.2098 9.87977 13.9605 10.0173C13.8703 10.0688 13.9305 10.0731 14.416 10.0774L14.9746 10.0774L14.8371 9.99149C14.5922 9.8454 14.575 9.47157 14.8027 9.27391ZM16.457 9.38563C16.457 9.34266 16.4699 9.28251 16.4828 9.24383C16.5043 9.18368 16.4355 9.17508 15.877 9.17508L15.2453 9.17508L15.3785 9.2868C15.6191 9.48876 15.5848 9.85829 15.3055 10.0087C15.1938 10.0731 15.198 10.0731 15.473 10.0774C15.6879 10.0774 15.8039 10.0516 15.9758 9.96571C16.1992 9.85399 16.457 9.54461 16.457 9.38563ZM1.80469 6.42508L1.43516 6.42508L1.06133 6.42508L1.17305 6.51102C1.33633 6.63993 1.39648 6.85477 1.31484 7.04383C1.28047 7.12977 1.20313 7.22001 1.14297 7.25008C1.00117 7.31024 1.00547 7.33173 1.15586 7.41766C1.43086 7.57665 1.40508 8.00204 1.10859 8.1868C1.02695 8.23407 0.996875 8.27274 1.03555 8.27274C1.13867 8.27274 1.32344 8.47469 1.35352 8.61649C1.38789 8.77547 1.28047 9.00321 1.12578 9.09774C1.00977 9.17079 1.01406 9.17079 1.40938 9.17508L1.80469 9.17508L1.80469 7.80008L1.80469 6.42508ZM5.56875 7.80008L5.21641 6.44657L3.9832 6.43368L2.75 6.42508L2.75 7.80008L2.75 9.17508L4.33984 9.17508C5.21641 9.17508 5.92969 9.17079 5.92969 9.16649C5.92539 9.1579 5.76641 8.54344 5.56875 7.80008Z" fill-rule="nonzero" stroke="rgb(0,28,66)" stroke-width="0.200000003" transform="matrix(1,0,0,-1,36.0977,40.8899)" />
				<path id="Vector 26" d="M1.63181 3.61267C1.49861 3.54822 1.36111 3.33337 1.36111 3.19158C1.36111 3.10993 1.2365 3.04978 1.19353 3.10993C1.14626 3.18728 0.982982 3.25173 0.828294 3.25173C0.493138 3.25173 0.291185 2.81775 0.506028 2.54704C0.622044 2.40095 0.591966 2.32361 0.402903 2.28923C0.222435 2.25486 0.0462627 2.08728 0.00759087 1.9197C-0.0482685 1.67048 0.213841 1.36111 0.47595 1.36111C0.587669 1.36111 0.604856 1.24509 0.506028 1.12048C0.291185 0.849778 0.493138 0.415794 0.828294 0.415794C0.982982 0.415794 1.14626 0.480247 1.19353 0.557591C1.2365 0.617747 1.36111 0.557591 1.36111 0.47595C1.36111 0.213841 1.67048 -0.0482685 1.9197 0.00759087C2.08728 0.0462627 2.25486 0.222435 2.28923 0.402903C2.31931 0.553294 2.41814 0.639232 2.474 0.557591C2.52556 0.47595 2.68884 0.415794 2.84353 0.415794C3.18728 0.415794 3.36345 0.811106 3.16579 1.13767C3.07556 1.28806 3.08415 1.36111 3.19587 1.36111C3.45368 1.36111 3.71579 1.67478 3.65993 1.9197C3.62126 2.08728 3.44509 2.25486 3.26892 2.28923C3.07556 2.32361 3.06267 2.35798 3.16579 2.52986C3.36345 2.85642 3.18298 3.25173 2.83064 3.25173C2.72322 3.25173 2.62009 3.21736 2.54704 3.1615C2.42243 3.06267 2.30642 3.07986 2.30642 3.19158C2.30642 3.33767 2.16892 3.54822 2.02712 3.61267C1.85095 3.69861 1.80368 3.69861 1.63181 3.61267ZM2.02712 2.23767C2.16033 2.17751 2.30642 1.96267 2.30642 1.83376C2.30642 1.80368 2.27634 1.71775 2.23767 1.6404C2.15603 1.46423 1.924 1.34392 1.74783 1.38259C1.58884 1.41697 1.41697 1.58884 1.38259 1.74783C1.34392 1.9197 1.46423 2.15603 1.63181 2.23767C1.80368 2.32361 1.85095 2.32361 2.02712 2.23767Z" fill="rgb(6,72,163)" fill-rule="nonzero" transform="matrix(1,0,0,-1,43.4162,35.3963)" />
				<path id="Vector 26" d="M1.36111 3.19158C1.36111 3.10993 1.2365 3.04978 1.19353 3.10993C1.14626 3.18728 0.982982 3.25173 0.828294 3.25173C0.493138 3.25173 0.291185 2.81775 0.506028 2.54704C0.622044 2.40095 0.591966 2.32361 0.402903 2.28923C0.222435 2.25486 0.0462627 2.08728 0.00759087 1.9197C-0.0482685 1.67048 0.213841 1.36111 0.47595 1.36111C0.587669 1.36111 0.604856 1.24509 0.506028 1.12048C0.291185 0.849778 0.493138 0.415794 0.828294 0.415794C0.982982 0.415794 1.14626 0.480247 1.19353 0.557591C1.2365 0.617747 1.36111 0.557591 1.36111 0.47595C1.36111 0.213841 1.67048 -0.0482685 1.9197 0.00759087C2.08728 0.0462627 2.25486 0.222435 2.28923 0.402903C2.31931 0.553294 2.41814 0.639232 2.474 0.557591C2.52556 0.47595 2.68884 0.415794 2.84353 0.415794C3.18728 0.415794 3.36345 0.811106 3.16579 1.13767C3.07556 1.28806 3.08415 1.36111 3.19587 1.36111C3.45368 1.36111 3.71579 1.67478 3.65993 1.9197C3.62126 2.08728 3.44509 2.25486 3.26892 2.28923C3.07556 2.32361 3.06267 2.35798 3.16579 2.52986C3.36345 2.85642 3.18298 3.25173 2.83064 3.25173C2.72322 3.25173 2.62009 3.21736 2.54704 3.1615C2.42243 3.06267 2.30642 3.07986 2.30642 3.19158C2.30642 3.33767 2.16892 3.54822 2.02712 3.61267C1.85095 3.69861 1.80368 3.69861 1.63181 3.61267C1.49861 3.54822 1.36111 3.33337 1.36111 3.19158ZM2.30642 1.83376C2.30642 1.80368 2.27634 1.71775 2.23767 1.6404C2.15603 1.46423 1.924 1.34392 1.74783 1.38259C1.58884 1.41697 1.41697 1.58884 1.38259 1.74783C1.34392 1.9197 1.46423 2.15603 1.63181 2.23767C1.80368 2.32361 1.85095 2.32361 2.02712 2.23767C2.16033 2.17751 2.30642 1.96267 2.30642 1.83376Z" fill-rule="nonzero" stroke="rgb(0,28,66)" stroke-width="0.200000003" transform="matrix(1,0,0,-1,43.4162,35.3963)" />
				<path id="Vector 27" d="M0.284411 0.872265C-0.0636359 0.743358 -0.102308 0.197656 0.224255 0.0472656C0.297301 0.0171875 0.825817 0 1.85707 0L3.38675 0L3.51136 0.124609C3.64886 0.262109 3.67464 0.464062 3.58441 0.666015C3.48128 0.893749 3.42113 0.902343 1.82269 0.898046C1.01058 0.898046 0.318786 0.885155 0.284411 0.872265Z" fill="rgb(6,72,163)" fill-rule="nonzero" transform="matrix(1,0,0,-1,48.0164,38.5898)" />
				<path id="Vector 27" d="M0.224255 0.0472656C0.297301 0.0171875 0.825817 0 1.85707 0L3.38675 0L3.51136 0.124609C3.64886 0.262109 3.67464 0.464062 3.58441 0.666015C3.48128 0.893749 3.42113 0.902343 1.82269 0.898046C1.01058 0.898046 0.318786 0.885155 0.284411 0.872265C-0.0636359 0.743358 -0.102308 0.197656 0.224255 0.0472656Z" fill-rule="nonzero" stroke="rgb(0,28,66)" stroke-width="0.200000003" transform="matrix(1,0,0,-1,48.0164,38.5898)" />
			</g>
		</g>
	</g>
</svg>
